<?xml version="1.0" encoding="UTF-8" standalone="no"?>
<!-- Generator: Adobe Illustrator 16.2.1, SVG Export Plug-In . SVG Version: 6.00 Build 0)  -->

<svg
   xmlns:dc="http://purl.org/dc/elements/1.1/"
   xmlns:cc="http://creativecommons.org/ns#"
   xmlns:rdf="http://www.w3.org/1999/02/22-rdf-syntax-ns#"
   xmlns:svg="http://www.w3.org/2000/svg"
   xmlns="http://www.w3.org/2000/svg"
   xmlns:xlink="http://www.w3.org/1999/xlink"
   xmlns:sodipodi="http://sodipodi.sourceforge.net/DTD/sodipodi-0.dtd"
   xmlns:inkscape="http://www.inkscape.org/namespaces/inkscape"
   version="1.1"
   id="Layer_1"
   x="0px"
   y="0px"
   width="24"
   height="24"
   viewBox="0 0 24 24"
   xml:space="preserve"
   inkscape:version="0.92.4 (unknown)"
   sodipodi:docname="ionicons-people-w.svg"><metadata
   id="metadata13"><rdf:RDF><cc:Work
       rdf:about=""><dc:format>image/svg+xml</dc:format><dc:type
         rdf:resource="http://purl.org/dc/dcmitype/StillImage" /><dc:title></dc:title></cc:Work></rdf:RDF></metadata><defs
   id="defs11"><linearGradient
   id="linearGradient2992"><stop
     id="stop832"
     offset="0"
     style="stop-color:#334466;stop-opacity:1;" /><stop
     id="stop834"
     offset="1"
     style="stop-color:#496293;stop-opacity:1;" /></linearGradient><linearGradient
   id="linearGradient3000"><stop
     id="stop827"
     offset="0"
     style="stop-color:#496293;stop-opacity:1;" /><stop
     id="stop829"
     offset="1"
     style="stop-color:#6080c0;stop-opacity:1;" /></linearGradient><linearGradient
   id="linearGradient3000-8"><stop
     style="stop-color:#c0c0c0;stop-opacity:1"
     offset="0"
     id="stop3002" /><stop
     style="stop-color:#ffffff;stop-opacity:1"
     offset="1"
     id="stop3004" /></linearGradient><linearGradient
   id="linearGradient2992-1"><stop
     style="stop-color:#a0a0a0;stop-opacity:1"
     offset="0"
     id="stop2994" /><stop
     style="stop-color:#e0e0e0;stop-opacity:1"
     offset="1"
     id="stop2996" /></linearGradient>
	
	
<linearGradient
   inkscape:collect="always"
   xlink:href="#linearGradient2992-1"
   id="linearGradient3016"
   gradientUnits="userSpaceOnUse"
   x1="390.50848"
   y1="451.25424"
   x2="390.50848"
   y2="117.1455"
   gradientTransform="matrix(0.05357143,0,0,0.05357143,-1.577631,-1.613956)" /><linearGradient
   inkscape:collect="always"
   xlink:href="#linearGradient3000-8"
   id="linearGradient3018"
   gradientUnits="userSpaceOnUse"
   x1="197.42372"
   y1="449.08475"
   x2="197.42372"
   y2="62.81776"
   gradientTransform="matrix(0.05357143,0,0,0.05357143,-1.577631,-1.613956)" /></defs><sodipodi:namedview
   pagecolor="#ffffff"
   bordercolor="#666666"
   borderopacity="1"
   objecttolerance="10"
   gridtolerance="10"
   guidetolerance="10"
   inkscape:pageopacity="0"
   inkscape:pageshadow="2"
   inkscape:window-width="1552"
   inkscape:window-height="871"
   id="namedview9"
   showgrid="false"
   inkscape:zoom="11.313708"
   inkscape:cx="-5.611639"
   inkscape:cy="22.440647"
   inkscape:window-x="48"
   inkscape:window-y="0"
   inkscape:window-maximized="1"
   inkscape:current-layer="Layer_1" />
<g
   id="g839"><path
     style="fill:url(#linearGradient3016);fill-opacity:1;stroke-width:0.05357143"
     d="m 21.206298,15.786044 c -2.217857,-0.841071 -2.083928,-0.503571 -2.083928,-2.0625 0,-1.007142 0.498214,-0.6375 0.814285,-2.555357 0.123215,-0.755357 0.225,-0.251786 0.4875,-1.4624998 C 20.563441,9.0735443 20.327727,9.02533 20.35987,8.72533 c 0.02679,-0.3 0.05357,-0.5732143 0.107142,-1.1892858 0.06429,-0.7714285 -0.621428,-2.7857143 -3.075,-2.7857143 -2.453571,0 -3.139285,2.0142858 -3.075,2.7857143 0.04822,0.6214286 0.08036,0.8892858 0.107143,1.1892858 0.02679,0.3 -0.203571,0.3482143 -0.06429,0.9803572 0.2625,1.2107138 0.364286,0.7017858 0.4875,1.4624998 0.316072,1.917857 0.808929,1.553572 0.808929,2.555357 0,0.717858 0.166071,1.017858 -0.798214,1.473215 0.289285,0.101785 0.626785,0.225 1.033928,0.380357 2.914286,1.108928 2.844643,2.185714 2.919643,2.694643 0.05357,0.348214 0.08036,3.123214 0.09107,4.114286 h 5.233928 c 0,0 0,-4.3125 -0.08036,-4.816072 -0.05893,-0.396428 -0.589285,-0.921429 -2.85,-1.783929 z"
     id="path5"
     inkscape:connector-curvature="0" /><path
     style="fill:url(#linearGradient3018);fill-opacity:1.0;stroke-width:0.05357143"
     d="m 17.54737,22.386045 c 0,0 0,-0.755358 -0.01072,-1.628572 -0.01071,-0.996428 -0.0375,-2.142857 -0.09107,-2.485714 -0.08036,-0.508929 -0.766072,-1.189286 -3.675,-2.298215 -0.401786,-0.15 -0.739286,-0.273214 -1.033929,-0.380357 -1.783929,-0.632143 -1.655357,-0.841071 -1.655357,-2.571428 0,-1.301786 0.642857,-0.455357 1.05,-2.925 0.160714,-0.9750004 0.289286,-0.3267861 0.626786,-1.8857147 0.182143,-0.8142858 -0.123215,-0.8785715 -0.08572,-1.2696429 0.0375,-0.3910715 0.075,-0.7392858 0.139286,-1.5375001 0.08571,-0.9910714 -0.798214,-3.5946429 -3.9696429,-3.5946429 -3.1714286,0 -4.0500001,2.5982143 -3.9696429,3.5946429 0.064286,0.7982143 0.1017857,1.1464286 0.1446428,1.5375001 0.0375,0.3910714 -0.2678571,0.45 -0.085714,1.2696429 0.3428572,1.5589286 0.4714286,0.9107143 0.6321429,1.8857147 0.4071429,2.469643 1.0446429,1.623214 1.0446429,2.925 0,2.014285 0.1767857,1.864285 -2.6892858,2.951785 -2.9089286,1.108929 -3.59464293,1.789286 -3.67500008,2.298215 -0.10714286,0.648214 -0.10714286,4.114286 -0.10714286,4.114286 H 8.8420121 Z"
     id="path7"
     inkscape:connector-curvature="0" /></g>
</svg>