<?xml version="1.0" encoding="UTF-8" standalone="no"?>
<svg
   xmlns:dc="http://purl.org/dc/elements/1.1/"
   xmlns:cc="http://creativecommons.org/ns#"
   xmlns:rdf="http://www.w3.org/1999/02/22-rdf-syntax-ns#"
   xmlns:svg="http://www.w3.org/2000/svg"
   xmlns="http://www.w3.org/2000/svg"
   xml:space="preserve"
   style="enable-background:new 0 0 512 512;"
   viewBox="0 0 512 512"
   height="512px"
   width="512px"
   y="0px"
   x="0px"
   id="Layer_1"
   version="1.1"><metadata
   id="metadata9"><rdf:RDF><cc:Work
       rdf:about=""><dc:format>image/svg+xml</dc:format><dc:type
         rdf:resource="http://purl.org/dc/dcmitype/StillImage" /><dc:title></dc:title></cc:Work></rdf:RDF></metadata><defs
   id="defs7" />
<path
   style="fill:#ffffff;fill-opacity:1"
   id="path2"
   d="M398.1,233.2c0-1.2,0.2-2.4,0.2-3.6c0-65-51.8-117.6-115.7-117.6c-46.1,0-85.7,27.4-104.3,67c-8.1-4.1-17.2-6.5-26.8-6.5  c-29.5,0-54.1,21.9-58.8,50.5C57.3,235.2,32,269.1,32,309c0,50.2,40.1,91,89.5,91H224v-80l-48.2,0l80.2-83.7l80.2,83.6l-48.2,0v80  h110.3c45.2,0,81.7-37.5,81.7-83.4C480,270.6,443.3,233.3,398.1,233.2z" />
</svg>