<?xml version="1.0" encoding="UTF-8" standalone="no"?>
<!-- Generator: Adobe Illustrator 16.2.1, SVG Export Plug-In . SVG Version: 6.00 Build 0)  -->

<svg
   xmlns:dc="http://purl.org/dc/elements/1.1/"
   xmlns:cc="http://creativecommons.org/ns#"
   xmlns:rdf="http://www.w3.org/1999/02/22-rdf-syntax-ns#"
   xmlns:svg="http://www.w3.org/2000/svg"
   xmlns="http://www.w3.org/2000/svg"
   xmlns:xlink="http://www.w3.org/1999/xlink"
   xmlns:sodipodi="http://sodipodi.sourceforge.net/DTD/sodipodi-0.dtd"
   xmlns:inkscape="http://www.inkscape.org/namespaces/inkscape"
   version="1.1"
   id="Layer_1"
   x="0px"
   y="0px"
   width="24"
   height="24"
   viewBox="0 0 24 24"
   xml:space="preserve"
   inkscape:version="0.48.4 r9939"
   sodipodi:docname="ionicons-track.svg"><metadata
   id="metadata25"><rdf:RDF><cc:Work
       rdf:about=""><dc:format>image/svg+xml</dc:format><dc:type
         rdf:resource="http://purl.org/dc/dcmitype/StillImage" /><dc:title /></cc:Work></rdf:RDF></metadata><defs
   id="defs23"><linearGradient
   id="linearGradient3872"><stop
     style="stop-color:#334466;stop-opacity:1;"
     offset="0"
     id="stop3874" /><stop
     style="stop-color:#6080c0;stop-opacity:1;"
     offset="1"
     id="stop3876" /></linearGradient><linearGradient
   id="linearGradient3002"><stop
     style="stop-color:#334466;stop-opacity:1;"
     offset="0"
     id="stop3004" /><stop
     style="stop-color:#6080c0;stop-opacity:1;"
     offset="1"
     id="stop3006" /></linearGradient><linearGradient
   inkscape:collect="always"
   xlink:href="#linearGradient3002"
   id="linearGradient3008"
   x1="251.59888"
   y1="488.53818"
   x2="251.59888"
   y2="33.754841"
   gradientUnits="userSpaceOnUse" /><linearGradient
   inkscape:collect="always"
   xlink:href="#linearGradient3002"
   id="linearGradient2994"
   gradientUnits="userSpaceOnUse"
   x1="251.59888"
   y1="488.53818"
   x2="251.59888"
   y2="33.754841" /><linearGradient
   inkscape:collect="always"
   xlink:href="#linearGradient3002"
   id="linearGradient2996"
   gradientUnits="userSpaceOnUse"
   x1="251.59888"
   y1="488.53818"
   x2="251.59888"
   y2="33.754841" /><linearGradient
   inkscape:collect="always"
   xlink:href="#linearGradient3002"
   id="linearGradient2998"
   gradientUnits="userSpaceOnUse"
   x1="251.59888"
   y1="488.53818"
   x2="251.59888"
   y2="33.754841" />
	
	
	
	
	
	
<linearGradient
   inkscape:collect="always"
   xlink:href="#linearGradient3002"
   id="linearGradient3839"
   gradientUnits="userSpaceOnUse"
   gradientTransform="matrix(0.05023009,0,0,0.05355947,1.2764258,7.4161553)"
   x1="251.59888"
   y1="488.53818"
   x2="251.59888"
   y2="33.754841" /><linearGradient
   inkscape:collect="always"
   xlink:href="#linearGradient3002"
   id="linearGradient3841"
   gradientUnits="userSpaceOnUse"
   gradientTransform="matrix(0.05023009,0,0,0.05355947,1.2764258,3.4161553)"
   x1="251.59888"
   y1="488.53818"
   x2="251.59888"
   y2="33.754841" /><linearGradient
   inkscape:collect="always"
   xlink:href="#linearGradient3002"
   id="linearGradient3843"
   gradientUnits="userSpaceOnUse"
   gradientTransform="matrix(0.05023009,0,0,0.05355947,1.2764258,-0.58384471)"
   x1="251.59888"
   y1="488.53818"
   x2="251.59888"
   y2="33.754841" /><linearGradient
   inkscape:collect="always"
   xlink:href="#linearGradient3872"
   id="linearGradient3878"
   x1="14.128301"
   y1="17.332531"
   x2="14.128301"
   y2="-18.922817"
   gradientUnits="userSpaceOnUse" /></defs><sodipodi:namedview
   pagecolor="#ffffff"
   bordercolor="#666666"
   borderopacity="1"
   objecttolerance="10"
   gridtolerance="10"
   guidetolerance="10"
   inkscape:pageopacity="0"
   inkscape:pageshadow="2"
   inkscape:window-width="1024"
   inkscape:window-height="705"
   id="namedview21"
   showgrid="false"
   inkscape:zoom="14.75"
   inkscape:cx="8.6875832"
   inkscape:cy="11.965594"
   inkscape:window-x="-8"
   inkscape:window-y="-8"
   inkscape:window-maximized="1"
   inkscape:current-layer="Layer_1" />

<g
   id="g3853"><g
     transform="matrix(0.05355947,0,0,0.05355947,-1.5865205,-1.6864519)"
     id="g5"
     style="fill:url(#linearGradient2998);fill-opacity:1">
		
		
	</g><g
     id="g3845"><path
       id="path3809"
       transform="matrix(0.66954521,0,0,0.66954521,2.8116503,12.598477)"
       style="fill:url(#linearGradient3878);stroke-width:0.10000000000000001;stroke-miterlimit:4;fill-opacity:1"
       d="m 6.9807271,8.6114388 c 0,0.5458213 -0.4424756,0.9882969 -0.9882969,0.9882969 -0.5458213,0 -0.9882969,-0.4424756 -0.9882969,-0.9882969 0,-0.5458214 0.4424756,-0.988297 0.9882969,-0.988297 0.5458213,0 0.9882969,0.4424756 0.9882969,0.988297 z m 0,-5.9742043 c 0,0.5458213 -0.4424756,0.9882969 -0.9882969,0.9882969 -0.5458213,0 -0.9882969,-0.4424756 -0.9882969,-0.9882969 0,-0.5458214 0.4424756,-0.988297 0.9882969,-0.988297 0.5458213,0 0.9882969,0.4424756 0.9882969,0.988297 z m 0,-5.9742045 c 0,0.5458213 -0.4424756,0.9882969 -0.9882969,0.9882969 -0.5458213,0 -0.9882969,-0.4424756 -0.9882969,-0.9882969 0,-0.5458214 0.4424756,-0.988297 0.9882969,-0.988297 0.5458213,0 0.9882969,0.4424756 0.9882969,0.988297 z m 1.5293904,10.9557192 14.0429075,0 0,1.9958995 -14.0429075,0 z m 0,-5.9742045 14.0429075,0 0,1.995901 -14.0429075,0 z m 0,-5.9742053 14.0429075,0 0,1.9959003 -14.0429075,0 z M 25.796601,-16.295662 h -5.887544 v 1.15991 c 0,0.847935 0.695946,1.479886 1.519882,1.479886 h 2.97577 c 0.535958,0 0.967925,0.455965 0.991923,0.999922 l 0.008,26.173974 c -0.024,0.51196 -0.423968,0.927928 -0.919929,0.967925 l -21.1503627,0.008 c -0.4959616,-0.04 -0.8879312,-0.455964 -0.9199288,-0.967925 l -0.008,-26.181973 c 0.023998,-0.543957 0.4719634,-0.999922 0.9999225,-0.999922 h 2.983769 c 0.8239362,0 1.5198823,-0.631951 1.5198823,-1.479886 v -1.15991 H 2.0224419 c -1.20790649,0 -2.19183031,1.047919 -2.19183031,2.287823 v 28.829768 c 0,1.239904 0.98392382,2.239827 2.19183031,2.239827 H 13.909522 25.796601 c 1.207907,0 2.19183,-0.999923 2.19183,-2.239827 v -28.829768 c 0,-1.239904 -0.983923,-2.287823 -2.19183,-2.287823 z M 6.2301161,-8.5362625 H 21.588927 c -0.13599,-1.5998765 -0.77594,-2.8157825 -2.231827,-3.2077515 -0.032,-0.008 -0.07199,-0.024 -0.103992,-0.032 -0.959926,-0.271979 -1.663871,-0.599953 -1.663871,-1.655872 v -1.647872 c 0,-2.039842 -1.639873,-3.703713 -3.679715,-3.703713 -2.039843,0 -3.679716,1.655872 -3.679716,3.703713 v 1.647872 c 0,1.047919 -0.7039451,1.375894 -1.6638707,1.647873 -0.031998,0.008 -0.071994,0.032 -0.1119914,0.04 -1.4558872,0.391969 -2.0718396,1.607875 -2.2238278,3.2077515 z M 13.909522,-16.18367 c 0.607952,0 1.103914,0.495961 1.103914,1.103914 0,0.615952 -0.495962,1.103915 -1.103914,1.103915 -0.607953,0 -1.103915,-0.495962 -1.103915,-1.103915 0,-0.607953 0.495962,-1.103914 1.103915,-1.103914 z" /></g></g></svg>