<?xml version="1.0" encoding="UTF-8" standalone="no"?>
<!-- Generator: Adobe Illustrator 16.2.1, SVG Export Plug-In . SVG Version: 6.00 Build 0)  -->

<svg
   xmlns:dc="http://purl.org/dc/elements/1.1/"
   xmlns:cc="http://creativecommons.org/ns#"
   xmlns:rdf="http://www.w3.org/1999/02/22-rdf-syntax-ns#"
   xmlns:svg="http://www.w3.org/2000/svg"
   xmlns="http://www.w3.org/2000/svg"
   xmlns:xlink="http://www.w3.org/1999/xlink"
   xmlns:sodipodi="http://sodipodi.sourceforge.net/DTD/sodipodi-0.dtd"
   xmlns:inkscape="http://www.inkscape.org/namespaces/inkscape"
   version="1.1"
   id="Layer_1"
   x="0px"
   y="0px"
   width="24"
   height="24"
   viewBox="0 0 24 24"
   xml:space="preserve"
   inkscape:version="0.48.4 r9939"
   sodipodi:docname="ionicons-person-add.svg"><metadata
   id="metadata13"><rdf:RDF><cc:Work
       rdf:about=""><dc:format>image/svg+xml</dc:format><dc:type
         rdf:resource="http://purl.org/dc/dcmitype/StillImage" /><dc:title></dc:title></cc:Work></rdf:RDF></metadata><defs
   id="defs11"><linearGradient
   id="linearGradient3050"><stop
     style="stop-color:#334466;stop-opacity:1;"
     offset="0"
     id="stop3052" /><stop
     style="stop-color:#6080c0;stop-opacity:1;"
     offset="1"
     id="stop3054" /></linearGradient><linearGradient
   id="linearGradient3000"><stop
     style="stop-color:#334466;stop-opacity:1;"
     offset="0"
     id="stop3002" /><stop
     style="stop-color:#496293;stop-opacity:1;"
     offset="1"
     id="stop3004" /></linearGradient><linearGradient
   id="linearGradient2992"><stop
     style="stop-color:#344568;stop-opacity:1;"
     offset="0"
     id="stop2994" /><stop
     style="stop-color:#6080c0;stop-opacity:1;"
     offset="1"
     id="stop2996" /></linearGradient>
	
	
<linearGradient
   inkscape:collect="always"
   xlink:href="#linearGradient2992"
   id="linearGradient3047"
   gradientUnits="userSpaceOnUse"
   x1="221.28813"
   y1="446.91525"
   x2="221.28813"
   y2="67.099304"
   gradientTransform="matrix(0.03742432,0,0,0.03742432,-0.31622818,5.674572)" /><linearGradient
   inkscape:collect="always"
   xlink:href="#linearGradient3050"
   id="linearGradient3056"
   x1="235.84789"
   y1="485.26669"
   x2="305.84824"
   y2="16.882986"
   gradientUnits="userSpaceOnUse" /><linearGradient
   inkscape:collect="always"
   xlink:href="#linearGradient3050"
   id="linearGradient3062"
   gradientUnits="userSpaceOnUse"
   x1="129.4601"
   y1="500.59598"
   x2="372.79376"
   y2="21.683212" /><linearGradient
   inkscape:collect="always"
   xlink:href="#linearGradient3050"
   id="linearGradient3064"
   gradientUnits="userSpaceOnUse"
   x1="235.84789"
   y1="485.26669"
   x2="305.84824"
   y2="16.882986" /></defs><sodipodi:namedview
   pagecolor="#ffffff"
   bordercolor="#666666"
   borderopacity="1"
   objecttolerance="10"
   gridtolerance="10"
   guidetolerance="10"
   inkscape:pageopacity="0"
   inkscape:pageshadow="2"
   inkscape:window-width="1366"
   inkscape:window-height="705"
   id="namedview9"
   showgrid="false"
   inkscape:zoom="7.375"
   inkscape:cx="10.120224"
   inkscape:cy="7.5941545"
   inkscape:window-x="1016"
   inkscape:window-y="-8"
   inkscape:window-maximized="1"
   inkscape:current-layer="Layer_1" />

<g
   id="g3066"><path
     style="fill:url(#linearGradient3047);fill-opacity:1"
     d="m 15.252298,22.440679 c 0,0 0,-0.988001 -0.08237,-1.504458 -0.0673,-0.407927 -0.632465,-0.946834 -3.035111,-1.830054 -2.3652201,-0.868239 -2.219268,-0.44535 -2.219268,-2.04336 0,-1.036665 0.527694,-0.434127 0.864513,-2.402647 0.130979,-0.774685 0.235765,-0.258233 0.520192,-1.500721 0.149696,-0.651179 -0.10105,-0.699832 -0.07113,-1.010452 0.02989,-0.310624 0.05979,-0.587565 0.116014,-1.223779 0.06731,-0.78591 -0.662412,-2.8554779 -3.2783769,-2.8554779 -2.6159621,0 -3.3457368,2.0695679 -3.2746305,2.8592199 0.05613,0.632472 0.086075,0.913156 0.1160156,1.223776 0.029946,0.310624 -0.2208035,0.359274 -0.071102,1.010456 0.2844249,1.238745 0.3892127,0.722293 0.5201981,1.500721 0.3368189,1.968523 0.8645022,1.365983 0.8645022,2.402643 0,1.601759 0.145955,1.178866 -2.2192635,2.043364 -2.402643,0.879477 -2.9714931,1.422125 -3.03511445,1.830052 -0.086076,0.512716 -0.086076,1.500717 -0.086076,1.500717 H 8.0668253 15.252298 z"
     id="path7"
     inkscape:connector-curvature="0" /><g
     style="fill:url(#linearGradient3064);fill-opacity:1"
     id="g5"
     transform="matrix(0.02605137,-0.0038934,0.0038934,0.02605137,10.135994,2.3780832)"><path
       inkscape:connector-curvature="0"
       d="M 41.3,448 32,480 64,470.7 z M 64,363.3 46.4,431.1 80.9,465.6 148.7,448 z M 471.7,88.4 423.6,40.3 C 411.9,28.6 392,29.4 379.3,42.1 l -45.2,45.2 90.6,90.6 45.2,-45.2 c 12.7,-12.7 13.5,-32.6 1.8,-44.3 z M 163.04203,439.59641 72.462512,349.01689 322.77591,98.703493 413.35543,189.28301 z"
       style="fill:url(#linearGradient3062)"
       id="polygon13" /></g></g></svg>