<?xml version="1.0" encoding="UTF-8" standalone="no"?>
<svg
   xmlns:dc="http://purl.org/dc/elements/1.1/"
   xmlns:cc="http://creativecommons.org/ns#"
   xmlns:rdf="http://www.w3.org/1999/02/22-rdf-syntax-ns#"
   xmlns:svg="http://www.w3.org/2000/svg"
   xmlns="http://www.w3.org/2000/svg"
   xmlns:xlink="http://www.w3.org/1999/xlink"
   xml:space="preserve"
   style="enable-background:new 0 0 512 512;"
   viewBox="0 0 512 512"
   height="512px"
   width="512px"
   y="0px"
   x="0px"
   id="Layer_1"
   version="1.1"><metadata
     id="metadata13"><rdf:RDF><cc:Work
         rdf:about=""><dc:format>image/svg+xml</dc:format><dc:type
           rdf:resource="http://purl.org/dc/dcmitype/StillImage" /><dc:title></dc:title></cc:Work></rdf:RDF></metadata><defs
     id="defs11"><linearGradient
       id="linearGradient870"><stop
         id="stop866"
         offset="0"
         style="stop-color:#334466;stop-opacity:1" /><stop
         id="stop868"
         offset="1"
         style="stop-color:#496293;stop-opacity:1" /></linearGradient><linearGradient
       id="linearGradient856"><stop
         id="stop852"
         offset="0"
         style="stop-color:#496293;stop-opacity:1" /><stop
         id="stop854"
         offset="1"
         style="stop-color:#6080c0;stop-opacity:1" /></linearGradient><linearGradient
       gradientUnits="userSpaceOnUse"
       y2="192"
       x2="304"
       y1="192"
       x1="207.60001"
       id="linearGradient858"
       xlink:href="#linearGradient856" /><linearGradient
       gradientUnits="userSpaceOnUse"
       y2="386.16949"
       x2="444.74576"
       y1="384"
       x1="82.440681"
       id="linearGradient872"
       xlink:href="#linearGradient870" /></defs><g
     id="g6"><polygon
       style="fill-opacity:1;fill:url(#linearGradient858)"
       id="polygon2"
       points="256,307.7 384,192 304,192 304,96 207.6,96 207.6,192 128,192  " /><path
       style="fill-opacity:1;fill:url(#linearGradient872)"
       id="path4"
       d="M465.4,297.2l-71.4-55h-42l62,61.8h-50.6c-2.3,0-4.3,1.2-5.4,2.9l-18.4,45.5H172.1l-18.4-45.5c-1-1.8-3.1-2.9-5.4-2.9H97.8   l62.2-61.8h-42.2l-71.4,55c-10.6,6.2-15.8,19-14.1,31.6l8.7,66.9c2.3,13.1,9.7,20.3,28.1,20.3h373.8c19.1,0,25.8-7.6,28.1-20.3   l8.7-66.9C481.4,315.9,476,303.4,465.4,297.2z" /></g></svg>