<?xml version="1.0" encoding="UTF-8" standalone="no"?>
<!-- Generator: Adobe Illustrator 16.2.1, SVG Export Plug-In . SVG Version: 6.00 Build 0)  -->

<svg
   xmlns:dc="http://purl.org/dc/elements/1.1/"
   xmlns:cc="http://creativecommons.org/ns#"
   xmlns:rdf="http://www.w3.org/1999/02/22-rdf-syntax-ns#"
   xmlns:svg="http://www.w3.org/2000/svg"
   xmlns="http://www.w3.org/2000/svg"
   xmlns:xlink="http://www.w3.org/1999/xlink"
   xmlns:sodipodi="http://sodipodi.sourceforge.net/DTD/sodipodi-0.dtd"
   xmlns:inkscape="http://www.inkscape.org/namespaces/inkscape"
   version="1.1"
   id="Layer_1"
   x="0px"
   y="0px"
   width="24"
   height="24"
   viewBox="0 0 24 24"
   xml:space="preserve"
   inkscape:version="0.48.4 r9939"
   sodipodi:docname="pricetags.svg"><metadata
   id="metadata13"><rdf:RDF><cc:Work
       rdf:about=""><dc:format>image/svg+xml</dc:format><dc:type
         rdf:resource="http://purl.org/dc/dcmitype/StillImage" /><dc:title></dc:title></cc:Work></rdf:RDF></metadata><defs
   id="defs11"><linearGradient
     id="linearGradient2990"><stop
       style="stop-color:#334466;stop-opacity:1;"
       offset="0"
       id="stop2992" /><stop
       style="stop-color:#6080c0;stop-opacity:1;"
       offset="1"
       id="stop2994" /></linearGradient><linearGradient
     inkscape:collect="always"
     xlink:href="#linearGradient2990"
     id="linearGradient2996"
     x1="260.92236"
     y1="479.59586"
     x2="260.92236"
     y2="33.132214"
     gradientUnits="userSpaceOnUse" /></defs><sodipodi:namedview
   pagecolor="#ffffff"
   bordercolor="#666666"
   borderopacity="1"
   objecttolerance="10"
   gridtolerance="10"
   guidetolerance="10"
   inkscape:pageopacity="0"
   inkscape:pageshadow="2"
   inkscape:window-width="1366"
   inkscape:window-height="705"
   id="namedview9"
   showgrid="false"
   inkscape:zoom="14.75"
   inkscape:cx="11.750106"
   inkscape:cy="11.771575"
   inkscape:window-x="1016"
   inkscape:window-y="-8"
   inkscape:window-maximized="1"
   inkscape:current-layer="Layer_1" />
<g
   id="g3"
   transform="matrix(0.05360414,0,0,0.05360414,-1.715332,-1.6405267)"
   style="fill-opacity:1;fill:url(#linearGradient2996)">
	<path
   d="m 472,239.2 0,0 c 0,0 -0.1,0 0,0 L 282.1,48.1 c 0,0 0,0 0,0 l -1.4,-1.4 c 0,0 -0.5,0 -0.5,0 -7.5,-7.2 -16.1,-10.9 -27.1,-11.1 v 0 l -89.9,-3.3 -3.9,-0.1 c -10.1,0.1 -20,4.1 -27.7,11.8 l -27.1,27.2 c 7.4,-6.6 16.6,-10 26,-10.1 l 3.8,0.1 89.8,3.3 v 0 c 11,0.2 19.7,3.9 27.2,11.1 0,0 0.4,0 0.5,0 l 1.4,1.4 c 0,0 0,0 0,0 L 443,268.1 c 0,0 0,0 0,0 v 0 c 10,10.8 10.7,28.2 0,38.9 l 29,-28.9 c 10.6,-10.7 10,-28.1 0,-38.9 z"
   id="path5"
   inkscape:connector-curvature="0"
   style="fill-opacity:1;fill:url(#linearGradient2996)" />
	<path
   d="m 428,282.5 c 0,0 0.3,0 0.3,0 L 238.6,91.4 c 0,0 0,0 0,0 L 237.3,90 c 0,0 -0.3,0 -0.3,0 -7.5,-7.2 -15.9,-10.9 -26.9,-11.1 v 0 L 120,75.6 116,75.5 c -9.2,0.1 -18.2,3.4 -25.6,9.8 -0.3,0.3 -0.7,0.6 -1,0.9 -0.4,0.4 -0.8,0.8 -1.2,1.2 L 43.9,131.9 C 35.8,140 32,150.8 32,161.4 c 0,0 0,0 0,0.1 l 0.1,3.8 5.9,87.9 c 0,0.1 0,0.1 0,0.2 v 1.7 c 0,0 0,0 0,0 1,7.9 4.2,15.6 9.6,22 l 5.1,4.9 186.3,188.4 2.8,2.8 c 10.7,9.4 27.1,9 37.3,-1.3 l 13.1,-13.2 c 0.5,-0.4 0.9,-0.8 1.4,-1.3 l 26.9,-27 c -0.2,0.1 -0.3,0.2 -0.5,0.4 L 428.3,321.5 c 10.6,-10.7 10.7,-28.2 -0.3,-39 l 0,0 z m -317.4,-143 c 6.6,-4 14.3,-6.3 22.6,-6.3 23.9,0 43.4,19.4 43.4,43.4 0,8.3 -2.3,16 -6.3,22.6 -7.6,12.5 -21.3,20.8 -37,20.8 -23.9,0 -43.4,-19.4 -43.4,-43.4 -0.1,-15.8 8.2,-29.5 20.7,-37.1 z"
   id="path7"
   inkscape:connector-curvature="0"
   style="fill-opacity:1;fill:url(#linearGradient2996)" />
</g>
</svg>