<?xml version="1.0" encoding="UTF-8" standalone="no"?>
<!-- Generator: Adobe Illustrator 16.2.1, SVG Export Plug-In . SVG Version: 6.00 Build 0)  -->

<svg
   xmlns:dc="http://purl.org/dc/elements/1.1/"
   xmlns:cc="http://creativecommons.org/ns#"
   xmlns:rdf="http://www.w3.org/1999/02/22-rdf-syntax-ns#"
   xmlns:svg="http://www.w3.org/2000/svg"
   xmlns="http://www.w3.org/2000/svg"
   xmlns:xlink="http://www.w3.org/1999/xlink"
   xmlns:sodipodi="http://sodipodi.sourceforge.net/DTD/sodipodi-0.dtd"
   xmlns:inkscape="http://www.inkscape.org/namespaces/inkscape"
   version="1.1"
   id="Layer_1"
   x="0px"
   y="0px"
   width="512px"
   height="512px"
   viewBox="0 0 512 512"
   style="enable-background:new 0 0 512 512;"
   xml:space="preserve"
   inkscape:version="0.48.4 r9939"
   sodipodi:docname="search.svg"><metadata
   id="metadata5575"><rdf:RDF><cc:Work
       rdf:about=""><dc:format>image/svg+xml</dc:format><dc:type
         rdf:resource="http://purl.org/dc/dcmitype/StillImage" /><dc:title></dc:title></cc:Work></rdf:RDF></metadata><defs
   id="defs5573"><linearGradient
     id="linearGradient5581"><stop
       style="stop-color:#6080c0;stop-opacity:1;"
       offset="0"
       id="stop5583" /><stop
       style="stop-color:#334466;stop-opacity:1;"
       offset="1"
       id="stop5585" /></linearGradient><linearGradient
     inkscape:collect="always"
     xlink:href="#linearGradient5581"
     id="linearGradient5587"
     x1="259.25424"
     y1="65.134735"
     x2="259.25424"
     y2="446.96524"
     gradientUnits="userSpaceOnUse" /></defs><sodipodi:namedview
   pagecolor="#ffffff"
   bordercolor="#666666"
   borderopacity="1"
   objecttolerance="10"
   gridtolerance="10"
   guidetolerance="10"
   inkscape:pageopacity="0"
   inkscape:pageshadow="2"
   inkscape:window-width="1396"
   inkscape:window-height="880"
   id="namedview5571"
   showgrid="false"
   inkscape:zoom="0.4609375"
   inkscape:cx="256"
   inkscape:cy="257.08475"
   inkscape:window-x="40"
   inkscape:window-y="-3"
   inkscape:window-maximized="1"
   inkscape:current-layer="Layer_1" />
<path
   d="M445,386.7l-84.8-85.9c13.8-24.1,21-50.9,21-77.9c0-87.6-71.2-158.9-158.6-158.9C135.2,64,64,135.3,64,222.9  c0,87.6,71.2,158.9,158.6,158.9c27.9,0,55.5-7.7,80.1-22.4l84.4,85.6c1.9,1.9,4.6,3.1,7.3,3.1c2.7,0,5.4-1.1,7.3-3.1l43.3-43.8  C449,397.1,449,390.7,445,386.7z M222.6,125.9c53.4,0,96.8,43.5,96.8,97c0,53.5-43.4,97-96.8,97c-53.4,0-96.8-43.5-96.8-97  C125.8,169.4,169.2,125.9,222.6,125.9z"
   id="path5569"
   style="fill:url(#linearGradient5587)" />
</svg>