<?xml version="1.0" encoding="UTF-8" standalone="no"?>
<!-- Generator: Adobe Illustrator 16.2.1, SVG Export Plug-In . SVG Version: 6.00 Build 0)  -->

<svg
   xmlns:dc="http://purl.org/dc/elements/1.1/"
   xmlns:cc="http://creativecommons.org/ns#"
   xmlns:rdf="http://www.w3.org/1999/02/22-rdf-syntax-ns#"
   xmlns:svg="http://www.w3.org/2000/svg"
   xmlns="http://www.w3.org/2000/svg"
   xmlns:xlink="http://www.w3.org/1999/xlink"
   xmlns:sodipodi="http://sodipodi.sourceforge.net/DTD/sodipodi-0.dtd"
   xmlns:inkscape="http://www.inkscape.org/namespaces/inkscape"
   version="1.1"
   id="Layer_1"
   x="0px"
   y="0px"
   width="24"
   height="24"
   viewBox="0 0 24 24"
   xml:space="preserve"
   inkscape:version="0.48.4 r9939"
   sodipodi:docname="email.svg"><metadata
   id="metadata13"><rdf:RDF><cc:Work
       rdf:about=""><dc:format>image/svg+xml</dc:format><dc:type
         rdf:resource="http://purl.org/dc/dcmitype/StillImage" /><dc:title></dc:title></cc:Work></rdf:RDF></metadata><defs
   id="defs11"><linearGradient
     id="linearGradient2990"><stop
       style="stop-color:#334466;stop-opacity:1;"
       offset="0"
       id="stop2992" /><stop
       style="stop-color:#6080c0;stop-opacity:1;"
       offset="1"
       id="stop2994" /></linearGradient><linearGradient
     inkscape:collect="always"
     xlink:href="#linearGradient2990"
     id="linearGradient2996"
     x1="255.25331"
     y1="388.02353"
     x2="255.25331"
     y2="127.03496"
     gradientUnits="userSpaceOnUse" /></defs><sodipodi:namedview
   pagecolor="#ffffff"
   bordercolor="#666666"
   borderopacity="1"
   objecttolerance="10"
   gridtolerance="10"
   guidetolerance="10"
   inkscape:pageopacity="0"
   inkscape:pageshadow="2"
   inkscape:window-width="1366"
   inkscape:window-height="705"
   id="namedview9"
   showgrid="false"
   inkscape:zoom="7.375"
   inkscape:cx="7.7615277"
   inkscape:cy="11.701631"
   inkscape:window-x="1016"
   inkscape:window-y="-8"
   inkscape:window-maximized="1"
   inkscape:current-layer="Layer_1" />
<g
   id="g3"
   transform="matrix(0.05769113,0,0,0.05769113,-2.7409915,-2.7959441)"
   style="fill-opacity:1;fill:url(#linearGradient2996)">
	<path
   d="m 67,148.7 c 11,5.8 163.8,89.1 169.5,92.1 5.7,3 11.5,4.4 20.5,4.4 9,0 14.8,-1.4 20.5,-4.4 5.7,-3 158.5,-86.3 169.5,-92.1 4.1,-2.1 11,-5.9 12.5,-10.2 2.6,-7.6 -0.2,-10.5 -11.3,-10.5 H 257 65.8 c -11.1,0 -13.9,3 -11.3,10.5 1.5,4.4 8.4,8.1 12.5,10.2 z"
   id="path5"
   inkscape:connector-curvature="0"
   style="fill-opacity:1;fill:url(#linearGradient2996)" />
	<path
   d="m 455.7,153.2 c -8.2,4.2 -81.8,56.6 -130.5,88.1 l 82.2,92.5 c 2,2 2.9,4.4 1.8,5.6 -1.2,1.1 -3.8,0.5 -5.9,-1.4 l -98.6,-83.2 c -14.9,9.6 -25.4,16.2 -27.2,17.2 -7.7,3.9 -13.1,4.4 -20.5,4.4 -7.4,0 -12.8,-0.5 -20.5,-4.4 -1.9,-1 -12.3,-7.6 -27.2,-17.2 L 110.7,338 c -2,2 -4.7,2.6 -5.9,1.4 -1.2,-1.1 -0.3,-3.6 1.7,-5.6 l 82.1,-92.5 C 139.9,209.8 65.5,157.4 57.3,153.2 48.5,148.7 48,154 48,158.1 c 0,4.1 0,205 0,205 0,9.3 13.7,20.9 23.5,20.9 H 257 442.5 c 9.8,0 21.5,-11.7 21.5,-20.9 0,0 0,-201 0,-205 0,-4.2 0.6,-9.4 -8.3,-4.9 z"
   id="path7"
   inkscape:connector-curvature="0"
   style="fill-opacity:1;fill:url(#linearGradient2996)" />
</g>
</svg>