<?xml version="1.0" encoding="UTF-8" standalone="no"?>
<!-- Generator: Adobe Illustrator 16.2.1, SVG Export Plug-In . SVG Version: 6.00 Build 0)  -->

<svg
   xmlns:dc="http://purl.org/dc/elements/1.1/"
   xmlns:cc="http://creativecommons.org/ns#"
   xmlns:rdf="http://www.w3.org/1999/02/22-rdf-syntax-ns#"
   xmlns:svg="http://www.w3.org/2000/svg"
   xmlns="http://www.w3.org/2000/svg"
   xmlns:xlink="http://www.w3.org/1999/xlink"
   xmlns:sodipodi="http://sodipodi.sourceforge.net/DTD/sodipodi-0.dtd"
   xmlns:inkscape="http://www.inkscape.org/namespaces/inkscape"
   version="1.1"
   id="Layer_1"
   x="0px"
   y="0px"
   width="24"
   height="24"
   viewBox="0 0 24 24"
   xml:space="preserve"
   inkscape:version="0.48.4 r9939"
   sodipodi:docname="earth.svg"><metadata
   id="metadata19"><rdf:RDF><cc:Work
       rdf:about=""><dc:format>image/svg+xml</dc:format><dc:type
         rdf:resource="http://purl.org/dc/dcmitype/StillImage" /><dc:title></dc:title></cc:Work></rdf:RDF></metadata><defs
   id="defs17"><linearGradient
     id="linearGradient3004"><stop
       style="stop-color:#334466;stop-opacity:1;"
       offset="0"
       id="stop3006" /><stop
       style="stop-color:#6080c0;stop-opacity:1;"
       offset="1"
       id="stop3008" /></linearGradient><linearGradient
     inkscape:collect="always"
     xlink:href="#linearGradient3004"
     id="linearGradient3010"
     x1="253.85406"
     y1="477.35883"
     x2="253.85406"
     y2="33.619251"
     gradientUnits="userSpaceOnUse" /></defs><sodipodi:namedview
   pagecolor="#ffffff"
   bordercolor="#666666"
   borderopacity="1"
   objecttolerance="10"
   gridtolerance="10"
   guidetolerance="10"
   inkscape:pageopacity="0"
   inkscape:pageshadow="2"
   inkscape:window-width="1366"
   inkscape:window-height="705"
   id="namedview15"
   showgrid="false"
   inkscape:zoom="14.75"
   inkscape:cx="14.702495"
   inkscape:cy="11.403099"
   inkscape:window-x="1016"
   inkscape:window-y="-8"
   inkscape:window-maximized="1"
   inkscape:current-layer="Layer_1" />
<g
   id="g3"
   transform="matrix(0.05133929,0,0,0.05133929,-1.0326876,-1.1174332)"
   style="fill-opacity:1;fill:url(#linearGradient3010)">
	<path
   d="m 340.5,127 c 0.6,-0.3 1.3,-0.6 1.9,-0.9 0.6,-0.3 1.3,-0.3 1.3,-0.3 0,0 0.8,0 1,0.8 0.5,2.2 0.8,4 1.1,6.3 0.2,1.2 0.7,2.3 1.5,3.2 1.2,1.4 2.7,1.9 4.6,1.7 1.2,-0.1 2.4,-0.6 3.5,-1.2 1.7,-0.9 3.2,-2.1 4.7,-3.4 -0.2,-0.6 -0.3,-1.2 -0.4,-1.8 -1.2,-4.1 -3.2,-7.9 -6.2,-11 -1.4,-1.4 -2.9,-2.6 -4.8,-3.4 -0.7,-0.3 -1.3,-0.7 -1.8,-1.3 -0.5,-0.5 -0.9,-1.1 -1.3,-1.6 -0.4,-0.5 -0.9,-1 -1.4,-1.4 -0.2,-0.2 -0.6,-0.4 -0.9,-0.5 -1.3,-0.2 -2.4,0.2 -3.3,1.1 -0.4,0.5 -0.5,1 -0.2,1.6 0.5,1 0.7,2.1 1,3.2 0.1,0.2 0.1,0.5 0.1,0.8 -0.4,0.3 -0.8,0.7 -1.3,1 -0.4,0.3 -0.8,0.6 -1.3,1 -0.5,0.3 -0.9,0.7 -1.3,1 -0.4,0.3 -0.9,0.6 -1.2,1 -0.7,0.6 2.2,5.1 3.4,4.7 0.7,-0.3 0.7,-0.3 1.3,-0.6 z"
   id="path5"
   inkscape:connector-curvature="0"
   style="fill-opacity:1;fill:url(#linearGradient3010)" />
	<path
   d="m 284.9,96.7 c 1.2,1.1 2.5,2 4.1,2.4 2.5,0.7 5,1.2 7.6,1.5 0.3,0 0.6,0 0.9,0 0.1,-0.3 0.2,-0.5 0.2,-0.7 0.3,-1.1 0.7,-2.2 1,-3.3 0.1,-0.5 0.3,-0.9 0.8,-1.2 0.3,-0.2 0.5,-0.4 0.8,-0.6 1.5,-1.5 1.5,-2.9 0,-4.4 -1,-1 -2.2,-1.7 -3.5,-2.2 -0.3,0.1 -0.5,0.1 -0.7,0.2 -3.5,1.3 -6.9,2.6 -10.4,3.9 -0.2,0.1 -0.4,0.1 -0.6,0.2 -1.1,0.5 -1.6,1.9 -1.1,3 0.3,0.5 0.6,0.9 0.9,1.2 z"
   id="path7"
   inkscape:connector-curvature="0"
   style="fill-opacity:1;fill:url(#linearGradient3010)" />
	<path
   d="m 166.3,177.9 c 0.6,0 1.3,-0.2 1.8,-0.4 0.7,-0.3 0.9,-1 0.5,-1.6 -0.2,-0.2 -0.4,-0.5 -0.6,-0.6 -0.4,-0.2 -0.8,-0.4 -1.2,-0.5 -0.7,-0.2 -1.4,-0.3 -2.1,-0.4 -1.5,-0.2 -3,-0.3 -4.5,-0.4 -2.2,-0.1 -4.2,-0.8 -5.9,-2.2 -0.4,-0.3 -0.8,-0.6 -1.2,-0.9 -0.3,-0.3 -0.7,-0.5 -1.1,-0.7 -1,-0.6 -2.1,-1 -3.3,-0.9 -0.7,0.1 -1.5,0.1 -2.2,0.3 -0.8,0.2 -1.6,0.5 -2.3,1 -1,0.8 -2.2,3 -2.2,3.4 0,0.4 0.2,0.8 0.5,0.9 0.6,0.2 1.2,0.5 1.8,0.6 0.9,0.2 1.9,0.3 2.8,0.5 4.5,0.8 9.1,1.6 13.7,2 1.9,-0.1 3.7,0 5.5,-0.1 z"
   id="path9"
   inkscape:connector-curvature="0"
   style="fill-opacity:1;fill:url(#linearGradient3010)" />
	<path
   d="m 176.3,185.4 c -1,-0.6 -2,-1.3 -2.9,-1.9 -0.3,-0.2 -0.8,-0.3 -1,-0.3 -0.2,0 -0.5,0.1 -0.8,0.2 -2.5,1.1 -5,2.3 -7.4,3.4 -0.6,0.3 -1.2,0.6 -1.8,0.9 -0.2,0.1 -0.5,0.4 -0.7,0.6 -0.2,0.2 -0.1,0.5 0.1,0.6 0.3,0.1 0.7,0.3 1,0.3 1.2,0.2 2.5,0.1 3.7,0.1 1.1,0 2.3,-0.1 3.4,-0.1 2.5,0 4.8,0.5 7,1.7 0.3,0.1 0.6,0.3 0.9,0.4 0.3,0.1 0.5,-0.1 0.7,-0.3 0.1,-0.1 0.1,-0.2 0.2,-0.4 0.4,-1.3 0.7,-2.9 0.5,-3.4 -0.2,-0.5 -0.6,-0.9 -1.2,-1.1 -0.6,-0.1 -1.2,-0.4 -1.7,-0.7 z"
   id="path11"
   inkscape:connector-curvature="0"
   style="fill-opacity:1;fill:url(#linearGradient3010)" />
	<path
   d="M 256,32 C 132.3,32 32,132.3 32,256 32,379.7 132.3,480 256,480 379.7,480 480,379.7 480,256 480,132.3 379.7,32 256,32 z M 120.2,391.8 C 84,355.5 64,307.3 64,256 c 0,-36.2 10,-70.9 28.6,-100.9 0.1,0.1 0.1,0.3 0.2,0.3 0.2,0.1 0.3,0.3 0.4,0.4 0.2,0.1 0.3,0.2 0.5,0.3 -0.1,0.6 -0.1,1.2 -0.2,1.8 -0.4,3.3 -0.9,6.5 -1.3,9.8 -0.3,2 0.1,3.9 0.9,5.7 0.6,1.4 1.5,2.7 2.6,3.9 1.3,1.5 2.8,2.7 4.4,3.8 2.7,1.9 5.6,3.3 8.6,4.5 0.3,0.1 0.5,0.2 0.9,0.3 -0.1,1.4 -0.3,2.7 -0.5,4 -0.2,1.3 -0.5,2 -0.4,3.1 0.1,0.7 0.3,1.4 0.6,1.6 1.6,1.4 3.2,2.9 4.9,4.3 0.5,0.4 1.1,2.4 1.2,3 0.8,3.5 1.3,5.3 2.2,8.8 0.1,0.6 0.4,1.1 0.9,1.4 1.8,1.3 3.5,2.7 5.2,4 0.3,0.2 0.7,0.5 1,0.6 1.7,0.9 2.7,2.2 3.2,4 0.3,1.1 0.4,2.2 0.4,3.4 0,2.2 -0.5,4.2 -1.1,6.3 -0.4,1.5 -1.1,2.9 -1.9,4.1 -1.3,1.8 -2.5,3.6 -3.8,5.4 -1.6,2.2 -3.2,4.5 -4.7,6.7 -0.6,0.8 -1.1,1.8 -1.6,2.6 -1.2,1.9 -1.7,3.9 -2,6.1 -0.3,2.5 -0.4,4.9 -0.2,7.4 0.2,2.3 0.6,4.5 1.4,6.6 0.2,0.5 0.2,0.9 0.1,1.5 -0.5,2.3 -0.2,4.4 0.7,6.5 0.5,1.3 1.2,2.5 2,3.6 0.9,1.2 1.8,2.3 2.7,3.5 1.5,1.8 2.9,3.5 4.3,5.4 3,4 6.7,7.2 10.8,9.9 0.3,0.2 0.6,0.4 1,0.6 -0.1,0.3 -0.1,0.5 -0.2,0.8 -0.6,1.8 -1,3.7 -1,5.7 -0.1,2.8 0.5,5.4 2.1,7.7 0.7,1 1.2,1.5 2.7,2.7 0.1,0.4 0,0.8 -0.1,1.3 -0.4,3.2 -0.9,6.4 -1.3,9.6 -0.2,1.7 -0.4,3.4 -0.7,5.1 -0.1,0.7 -0.2,1.4 -0.4,2 -0.7,2.4 -1.2,4.8 -1.5,7.2 -0.1,1.6 -0.2,3.1 0.1,4.7 0.2,1.3 0.7,2.6 1.7,3.6 -0.1,0.8 -0.2,1.6 -0.3,2.4 -0.3,2.6 -0.7,5.1 -1,7.7 -0.2,1.2 -0.4,2.3 -0.6,3.4 -0.4,2.6 -0.6,5.2 -0.5,7.8 0.1,1.4 0.2,2.7 0.6,4 0.3,1.1 0.7,2.2 1.4,3.1 0.2,0.2 0.3,0.5 0.3,0.8 0.5,3.4 0.9,6.7 1.4,10.1 0.3,2.1 0.6,4.3 0.9,6.4 0.1,0.4 0.2,0.7 0.3,1 2.4,4.1 3.4,9.5 6.5,13.1 1.9,2.2 4.7,4.8 7,6.5 0.8,0.6 2.1,2.1 3.5,3.5 -13.1,-7.9 -25.4,-17.5 -36.7,-28.7 z M 434.6,197.1 c -1.8,-0.4 -3.6,-0.6 -5.4,-0.7 -3,-0.2 -6.1,-0.3 -9.1,-0.1 -0.2,0 -0.4,0 -0.6,0 -0.6,0.1 -1.1,-0.1 -1.5,-0.5 -4.6,-3.6 -9.2,-7.1 -13.8,-10.7 -0.6,-0.4 -1.1,-0.8 -1.7,-1.3 -0.7,-0.5 -1.4,-0.9 -2.2,-1.2 -1.8,-0.6 -3.6,-0.9 -5.5,-1.2 -2.8,-0.3 -5.5,-0.3 -8.3,-0.2 -0.7,0 -1.3,-0.1 -1.9,-0.3 -2.5,-1 -5.2,-1.7 -7.9,-2.1 -2.5,-0.4 -5,-0.5 -7.6,-0.4 -2.8,0.1 -5.6,0.5 -8.3,1.4 -3.6,1.1 -7.2,2.2 -10.8,3.3 -0.6,0.2 -1.1,0.5 -1.5,1 -2.5,3 -5,5.9 -7.4,8.9 -0.4,0.4 -0.8,0.7 -1.3,0.8 -6.8,1.6 -11.8,5.5 -15,11.8 -0.3,0.7 -0.6,1.3 -0.9,2 -0.2,0.4 -0.3,0.8 -0.4,1.2 -0.2,0.6 -0.1,1.2 0.2,1.8 0.1,0.1 0.1,0.2 0.2,0.4 0.5,0.9 0.7,1.8 0.7,2.8 0.1,1.6 -0.1,3.2 -0.3,4.8 -0.3,2 -0.7,4 -1.3,5.9 -1.5,4.8 -2.6,9.6 -3.5,14.5 -0.7,3.7 -1.2,7.5 -1.1,11.3 0,1.8 0.2,3.5 0.6,5.2 0.1,0.4 0.3,0.9 0.4,1.3 0.1,0.4 0.4,0.7 0.7,1 3.4,3.3 6.7,6.6 10.2,9.7 3.1,2.8 6.3,5.4 9.8,7.7 2.6,1.7 5.4,3.2 8.3,4.3 3.2,1.2 6.5,1.7 9.9,1.4 3.5,-0.3 7,-0.5 10.6,-0.6 2.5,-0.1 5,0 7.5,0.5 0.8,0.2 1.6,0.4 2.4,0.8 0.9,0.4 1.7,1 2.3,1.9 0.1,0.2 0.2,0.3 0.4,0.5 0.6,0.7 1.4,1 2.3,0.8 0.5,-0.1 1,-0.3 1.4,-0.5 0.5,-0.2 1,-0.4 1.5,-0.7 0.4,-0.2 0.8,-0.3 1.2,-0.5 1,-0.3 1.7,0 2.1,1 0.2,0.6 0.4,1.2 0.5,1.8 0.6,2.5 0.9,5 0.5,7.6 -0.2,1.8 -0.7,3.5 -1.3,5.2 -0.6,1.7 -1.3,3.3 -1.9,5 -0.5,1.2 -0.9,2.5 -1.3,3.8 -1.1,3.4 -1.1,6.9 -0.1,10.3 0.5,1.8 1.2,3.5 1.8,5.3 0.7,1.8 1.3,3.6 1.7,5.5 0.7,3.1 0.4,6.1 -0.8,9 -0.8,2.1 -1.9,3.9 -3.4,5.6 -1.1,1.2 -2.2,2.4 -3.3,3.6 -0.4,0.4 -0.8,0.9 -1.2,1.3 -1.7,1.9 -3.2,3.9 -4.3,6.2 -0.9,1.8 -1.8,3.7 -2.5,5.6 -1,2.8 -1.2,5.6 -0.6,8.5 0.5,2.2 1,4.4 1.4,6.6 0.3,1.4 0.5,2.8 0.7,4.1 0.1,0.7 0.1,1.5 -0.1,2.2 -0.3,1.2 -0.7,2.3 -1.2,3.5 -1.2,3.1 -2.7,6 -4.1,9 -1.6,3.3 -3.1,6.6 -4.6,9.9 -0.7,1.6 -1.3,3.3 -1.8,5 -0.2,0.7 -0.3,1.5 -0.4,2.3 -0.1,1 0.6,2.2 1.6,2.8 -31.8,22 -69.5,33.9 -109,33.9 -32.7,0 -64.1,-8.1 -91.9,-23.4 0,-0.3 -0.1,-0.6 -0.1,-0.9 -1.2,-6.5 -3.6,-19 -4.8,-25.4 -0.1,-0.7 -0.2,-1.5 -0.2,-1.9 0,-0.4 0.1,-1.4 0.3,-1.8 1,-2.1 1.7,-3.8 2.7,-5.9 0.9,-1.9 1.7,-3.8 2.6,-5.7 0.3,-0.6 0.7,-1.2 1.2,-1.7 2.3,-2.2 4.5,-4.4 6.7,-6.5 0.3,-0.3 0.7,-0.6 1.1,-0.9 4.3,-2.9 8.7,-5.8 13,-8.7 0.7,-0.5 1.2,-1 1.7,-1.7 1.9,-2.9 3.9,-5.8 5.8,-8.8 0.8,-1.3 1.5,-2.6 2.3,-3.9 0.2,-0.3 0.4,-0.6 0.6,-0.8 2.6,-3.3 5.2,-6.6 7.7,-9.9 0.4,-0.5 0.8,-0.8 1.5,-0.9 4.2,-0.9 8.3,-2.2 12.1,-4.1 0.9,-0.5 1.8,-1 2.7,-1.5 0.4,-0.2 0.7,-0.5 0.9,-0.9 2.8,-3.8 5.5,-7.7 8.3,-11.5 0.3,-0.4 0.5,-0.9 0.7,-1.3 1.9,-5.2 3.9,-10.3 5.8,-15.5 0.2,-0.6 0.5,-1 1,-1.3 5.5,-3.6 8.8,-8.6 9.8,-15.1 0.2,-1.5 0.3,-2.9 0.1,-4.4 -0.2,-1.5 -1,-2.9 -1.6,-3.6 -2.6,-3.2 -4.8,-4.6 -8.3,-6.7 -4.5,-2.6 -9.2,-4.4 -14.3,-5.6 -1.2,-0.3 -2.9,-0.8 -3.3,-1 -0.4,-0.2 -0.7,-0.4 -0.8,-0.8 -1.1,-2.2 -2.2,-4.4 -3.6,-6.4 -1.2,-1.8 -2.5,-3.5 -4.1,-5 -0.3,-0.3 -0.4,-0.6 -0.5,-1 -0.4,-1.3 -0.8,-2.7 -1.3,-4 -1.7,-4.3 -4.2,-8.1 -7.4,-11.4 -5.3,-5.4 -11.7,-9.2 -18.9,-11.6 -0.6,-0.2 -1,-0.5 -1.4,-1 -2.7,-3.8 -6.3,-6.4 -10.5,-8.1 -1.5,-0.6 -3,-1.1 -4.6,-1.4 -0.4,-0.1 -0.8,-0.2 -1.1,-0.4 -2.8,-1.4 -5.7,-2.8 -8.5,-4.2 -0.5,-0.2 -0.9,-0.5 -1.2,-0.9 -0.7,-0.8 -1.6,-1.4 -2.5,-2 -1.1,-0.6 -2.2,-0.9 -3.4,-0.9 -1.4,0.1 -2.6,0.7 -3.6,1.7 -0.2,0.2 -0.4,0.5 -0.6,0.8 -0.7,1.2 -1.4,2.4 -2.4,3.4 -1.5,1.5 -3.2,2.5 -5.4,2.8 -1.4,0.2 -2.9,0 -4.2,-0.4 -1.8,-0.5 -3.4,-1.4 -5,-2.5 -0.4,-0.3 -0.8,-0.5 -1.3,-0.8 -2.9,-1.7 -4.7,-4.2 -5.2,-7.5 -0.1,-0.7 -0.1,-1.4 -0.2,-2.1 -0.1,-3.1 0.1,-6.3 0.4,-9.4 0.1,-0.8 0.2,-1.1 0.2,-1.6 0,-0.4 -0.2,-1.1 -0.7,-1.3 -0.7,-0.3 -1.3,-0.7 -1.8,-1.2 -0.4,-0.3 -0.7,-0.7 -1,-1.1 -0.6,-0.9 0.2,-1.5 0.7,-2.5 0.4,-0.8 0,-1.8 0.8,-2.3 0.8,-0.5 1.7,-1.1 2.5,-1.7 0.9,-0.7 1.7,-1.4 2.5,-2.3 0.4,-0.5 0.7,-1 0.9,-1.6 0.4,-1.2 0.3,-2.3 -0.5,-3.3 -0.7,-0.9 -1,-1.6 -2.1,-2.1 -0.3,-0.1 -1.2,0 -1.5,0.1 -1.2,0.3 -2.3,0.6 -3.5,0.8 -1.5,0.3 -3.1,0.3 -4.7,-0.1 -2,-0.5 -3.3,-1.7 -4.1,-3.6 -0.5,-1.4 -0.7,-2.8 -0.6,-4.3 0.1,-2.9 0.7,-5.7 1.6,-8.4 0.1,-0.3 0.2,-0.6 0.4,-0.9 4.6,-6.5 10.6,-11.1 18.3,-13.4 1.9,-0.5 3.7,-0.9 5.7,-1.1 0.8,-0.1 1.5,0 2.3,0.1 2.2,0.2 4.3,0.6 6.3,1.4 1.2,0.4 2.2,1 3.2,1.8 2.1,1.6 3.3,3.6 3.5,6.2 0.1,1.7 0.6,3.3 1.2,4.8 0.3,1 0.7,1.9 1.2,2.9 0.3,0.6 0.6,1.1 1,1.6 0.3,0.4 0.7,0.7 1.1,1 0.7,0.5 1.5,0.4 2.3,0.1 0.4,-0.2 0.7,-0.5 0.8,-1 0.1,-0.9 0.3,-1.8 0.4,-2.8 0.6,-3.7 1.2,-7.4 1.7,-11 0.3,-1.9 0.6,-3.7 0.9,-5.6 0,-0.2 0.1,-0.4 0.1,-0.6 3.7,-5.5 16.7,-6.4 22,-12.1 0.2,0.1 0.3,0.2 0.5,0.4 0.6,0.5 1.2,0.7 1.9,0.7 1,0.1 2,-0.1 3,-0.3 1.4,-0.4 2.8,-0.9 4.1,-1.6 1.1,-0.5 2.1,-1.1 3.1,-1.7 0.5,-0.3 0.9,-0.5 1.5,-0.6 3.1,-0.9 6.2,-1.8 9.3,-2.7 0.6,-0.2 1.2,-0.2 1.8,-0.1 2.6,0.3 5.2,0.3 7.9,0 1.8,-0.2 3.5,-0.5 5.2,-1 0.3,-0.1 0.6,-0.2 0.9,-0.3 0.4,-0.1 0.6,-0.3 0.8,-0.7 0.4,-0.8 0.9,-1.5 1.4,-2.2 0.4,-0.6 0.9,-1.1 1.5,-1.6 0.4,-0.3 0.8,-0.6 1.3,-0.8 0.9,-0.4 1.9,-0.4 2.9,-0.1 0.8,0.3 1.4,0.7 2,1.3 0.5,0.5 1,0.8 1.6,1.1 0.8,0.4 1.7,0.7 2.6,0.9 2,0.4 3.8,-0.1 5.2,-1.5 0.8,-0.7 1.3,-1.6 1.8,-2.5 0.8,-1.5 1.3,-3 1.7,-4.7 0.5,-2 0.8,-4 1,-6.1 0,-0.3 0,-0.7 0,-1.1 -0.2,0.1 -0.5,0.1 -0.6,0.2 -0.9,0.4 -1.7,0.7 -2.6,0.9 -0.3,0 -0.5,0.1 -0.8,0 -0.6,-0.1 -0.9,-0.5 -0.8,-1.1 0.1,-0.5 0.2,-1 0.5,-1.4 0.5,-0.9 1,-1.7 1.5,-2.6 0.6,-1 1.2,-1.9 1.7,-2.9 0.3,-0.6 0.5,-1.3 0.5,-2 0.1,-0.9 -0.2,-1.7 -0.9,-2.3 -0.4,-0.4 -0.9,-0.8 -1.4,-1.1 -0.6,-0.4 -1.2,-0.8 -1.8,-1.3 -0.9,-0.7 -1.7,-1.5 -2.3,-2.6 -0.1,-0.1 -0.2,-0.3 -0.3,-0.4 -1.1,-1.6 -2.6,-2.1 -4.4,-1.6 -1.4,0.4 -2.6,1.2 -3.7,2.3 -0.6,0.6 -1.1,1.1 -1.7,1.7 -0.7,0.6 -1.5,1.2 -2.3,1.6 -1.4,0.7 -2.9,0.7 -4.3,0 -0.4,-0.2 -0.7,-0.4 -1.1,-0.6 -0.2,-0.1 -0.5,-0.2 -0.7,-0.3 -0.6,-0.2 -1,-0.1 -1.4,0.5 -0.2,0.3 -0.4,0.6 -0.5,1 -0.5,1.5 -1.5,2.7 -2.6,3.8 -1.4,1.3 -2.9,2.3 -4.6,3.2 -1.3,0.7 -2.6,1.2 -4,1.8 -0.5,0.2 -1.1,0.3 -1.7,0.3 -1.6,-0.1 -2.7,-0.8 -3.4,-2.3 -0.4,-1 -0.6,-2 -0.6,-3 -0.1,-1.9 0.1,-3.7 0.5,-5.6 0.1,-0.7 0.3,-1.3 0.4,-1.9 0.1,-0.5 0.3,-0.8 0.7,-1 1.9,-1.2 3.7,-2.4 5.5,-3.6 0.2,-0.1 0.4,-0.3 0.7,-0.4 1.3,-0.8 2.5,-1.7 3.6,-2.7 0.9,-0.9 2,-1.7 3.1,-2.4 0.5,-0.3 1,-0.5 1.5,-0.7 0.2,-0.1 0.5,-0.1 0.8,-0.2 0.8,-0.1 1.4,0.2 1.8,0.9 0.8,1.6 2.2,1.9 3.8,1.8 0.8,0 1.7,-0.2 2.5,-0.4 0.9,-0.2 1.7,-0.6 2.5,-0.9 0.4,-0.2 0.8,-0.3 1.3,-0.3 2,-0.1 3.9,-0.1 5.9,-0.2 0.3,0 0.6,0 0.9,0.3 1.6,1.1 3.1,2.2 4.5,3.5 0.9,0.9 1.2,1.3 1.7,2.4 0.2,-0.2 0.5,-0.4 0.7,-0.6 1.7,-1.5 3.3,-3.1 5,-4.6 0.4,-0.3 0.8,-0.7 1.1,-1 1.7,-1.3 3.3,-2.5 5,-3.8 0.3,-0.2 0.5,-0.4 0.8,-0.6 0.1,-0.4 -0.2,-0.7 -0.3,-1 -1.1,-2.5 -2.3,-4.9 -3.5,-7.4 -0.1,-0.2 -0.2,-0.4 -0.3,-0.6 1.1,0 2.3,0 3.4,0 1.7,0 3.3,0 5,0.1 0,0 0,0 0,0 0.2,0.6 0.5,1.2 0.7,1.8 0.1,0.3 0.2,0.6 0,1 -0.3,0.9 -0.7,1.7 -1,2.6 -1.2,3.1 -2.4,6.2 -3.6,9.3 -0.2,0.5 -0.3,0.9 -0.2,1.5 0.4,4 1.1,7.8 2.6,11.6 0.9,2.2 2,4.4 3.5,6.3 1.4,1.8 3.1,3.3 5.2,4.3 0.2,0.1 0.5,0.2 0.7,0.3 0.1,0 0.1,0 0.3,0 0.2,-0.2 0.4,-0.5 0.6,-0.7 2.8,-3.5 5.7,-7 8.5,-10.4 1.9,-2.3 3.9,-4.5 5.9,-6.8 0.2,-0.2 0.4,-0.4 0.5,-0.6 1,-1.1 1,-1.1 2.5,-1.4 2.1,-0.4 4.2,-0.7 6.3,-1.1 1.2,-0.2 0.9,0 1.5,-1.1 2.2,-3.5 4.4,-7 6.6,-10.5 0.1,-0.2 0.3,-0.4 0.4,-0.6 20.3,4.9 39.5,13.2 57.1,24.4 -3.2,0.4 -6.4,0.6 -9.5,1 -0.1,0.2 -0.1,0.4 -0.1,0.6 -0.4,3.9 -0.4,7.8 0.2,11.7 0.3,1.6 0.7,3.3 1.4,4.8 0.5,1.1 1.1,2 2,2.8 0.4,0.4 0.8,0.6 1.4,0.7 1.7,0.2 3.3,0.4 4.9,0.7 0.4,0.1 0.8,0.1 1.3,0.2 1.3,2.1 2.5,4.2 3.8,6.3 3,0.5 6.1,0.8 9.1,1.3 0,0.8 -0.2,1.5 -0.2,2.2 -0.2,1.7 -0.5,3.4 -0.7,5 -0.1,0.5 0,1 0.2,1.6 0.7,1.5 1.3,3.1 2,4.6 0.1,0.3 0.2,0.5 0.3,0.8 -0.2,0.2 -0.3,0.5 -0.5,0.7 -1.6,2.1 -3.2,4.1 -4.7,6.2 -0.2,0.3 -0.5,0.6 -0.8,0.8 -2.4,1.5 -4.8,3 -7.1,4.5 -0.9,-0.1 -1.8,-0.2 -2.6,-0.2 -1.8,0 -3.6,0.3 -5.4,0.8 -1.2,0.3 -2.3,0.8 -3.5,1.2 -0.3,0.1 -0.6,0.2 -0.8,0.4 -1.4,0.8 -2.8,1.6 -4.3,2.4 -0.1,0.1 -0.3,0.2 -0.4,0.3 0.1,0.2 0.2,0.4 0.3,0.6 1.9,3.4 3.7,6.8 5.6,10.1 1.1,2 2.6,3.8 4.3,5.4 1.3,1.2 2.7,2.1 4.3,2.7 2,0.8 4.1,0.9 6.2,0.4 2.8,-0.7 5.7,-1.4 8.5,-2.2 0.3,-0.1 0.5,-0.2 0.8,-0.2 0.1,-0.5 0.1,-0.9 0.2,-1.4 0.3,-2.5 0.5,-5 0.9,-7.5 0.2,-1.5 0.5,-3 0.8,-4.4 0.1,-0.5 0.3,-0.9 0.5,-1.4 0,-0.1 0.2,-0.2 0.3,-0.2 0.1,0 0.3,0.1 0.3,0.2 0.2,0.8 2.7,-1.5 2.7,-1.5 0,0 6.2,-4.4 23.6,16 17.4,20.4 27.1,14.4 27.1,14.4 1.1,1.3 2,2.8 2.7,4.3 0.9,2 1.5,4.1 1.8,6.2 0,0.3 0,0.5 0,0.8 -1.2,-0.3 -1.5,-0.4 -1.9,-0.4 z"
   id="path13"
   inkscape:connector-curvature="0"
   style="fill-opacity:1;fill:url(#linearGradient3010)" />
</g>
</svg>