<?xml version="1.0" encoding="UTF-8" standalone="no"?>
<!-- Generator: Adobe Illustrator 16.2.1, SVG Export Plug-In . SVG Version: 6.00 Build 0)  -->

<svg
   xmlns:dc="http://purl.org/dc/elements/1.1/"
   xmlns:cc="http://creativecommons.org/ns#"
   xmlns:rdf="http://www.w3.org/1999/02/22-rdf-syntax-ns#"
   xmlns:svg="http://www.w3.org/2000/svg"
   xmlns="http://www.w3.org/2000/svg"
   xmlns:xlink="http://www.w3.org/1999/xlink"
   xmlns:sodipodi="http://sodipodi.sourceforge.net/DTD/sodipodi-0.dtd"
   xmlns:inkscape="http://www.inkscape.org/namespaces/inkscape"
   version="1.1"
   id="Layer_1"
   x="0px"
   y="0px"
   width="24"
   height="24"
   viewBox="0 0 24 24"
   xml:space="preserve"
   inkscape:version="0.48.4 r9939"
   sodipodi:docname="ionicons-search.svg"><metadata
   id="metadata5575"><rdf:RDF><cc:Work
       rdf:about=""><dc:format>image/svg+xml</dc:format><dc:type
         rdf:resource="http://purl.org/dc/dcmitype/StillImage" /><dc:title></dc:title></cc:Work></rdf:RDF></metadata><defs
   id="defs5573"><linearGradient
     id="linearGradient5581"><stop
       style="stop-color:#6080c0;stop-opacity:1;"
       offset="0"
       id="stop5583" /><stop
       style="stop-color:#334466;stop-opacity:1;"
       offset="1"
       id="stop5585" /></linearGradient><linearGradient
     inkscape:collect="always"
     xlink:href="#linearGradient5581"
     id="linearGradient5587"
     x1="259.25424"
     y1="65.134735"
     x2="259.25424"
     y2="446.96524"
     gradientUnits="userSpaceOnUse"
     gradientTransform="matrix(0.0625,0,0,0.0625,-3.9855811,-3.9260344)" /></defs><sodipodi:namedview
   pagecolor="#ffffff"
   bordercolor="#666666"
   borderopacity="1"
   objecttolerance="10"
   gridtolerance="10"
   guidetolerance="10"
   inkscape:pageopacity="0"
   inkscape:pageshadow="2"
   inkscape:window-width="1366"
   inkscape:window-height="705"
   id="namedview5571"
   showgrid="false"
   inkscape:zoom="14.75"
   inkscape:cx="19.124012"
   inkscape:cy="8.9714848"
   inkscape:window-x="1016"
   inkscape:window-y="-8"
   inkscape:window-maximized="1"
   inkscape:current-layer="Layer_1"
   inkscape:snap-global="false" />
<path
   d="m 23.826918,20.242716 -5.3,-5.36875 c 0.8625,-1.50625 1.3125,-3.18125 1.3125,-4.86875 0,-5.4750001 -4.45,-9.93125008 -9.912499,-9.93125008 -5.4625001,0 -9.91250014,4.45624998 -9.91250014,9.93125008 0,5.475 4.45000004,9.93125 9.91250014,9.93125 1.743749,0 3.468749,-0.48125 5.006249,-1.4 l 5.275,5.35 c 0.11875,0.11875 0.2875,0.19375 0.45625,0.19375 0.16875,0 0.3375,-0.0687 0.45625,-0.19375 l 2.70625,-2.7375 c 0.25,-0.25625 0.25,-0.65625 0,-0.90625 z M 9.926919,3.9427159 c 3.337499,0 6.049999,2.71875 6.049999,6.0625001 0,3.34375 -2.7125,6.0625 -6.049999,6.0625 -3.3375001,0 -6.0500001,-2.71875 -6.0500001,-6.0625 0,-3.3437501 2.7125,-6.0625001 6.0500001,-6.0625001 z"
   id="path5569"
   style="fill:url(#linearGradient5587)"
   inkscape:connector-curvature="0" />
</svg>