<?xml version="1.0" encoding="UTF-8" standalone="no"?>
<!-- Generator: Adobe Illustrator 16.2.1, SVG Export Plug-In . SVG Version: 6.00 Build 0)  -->

<svg
   xmlns:dc="http://purl.org/dc/elements/1.1/"
   xmlns:cc="http://creativecommons.org/ns#"
   xmlns:rdf="http://www.w3.org/1999/02/22-rdf-syntax-ns#"
   xmlns:svg="http://www.w3.org/2000/svg"
   xmlns="http://www.w3.org/2000/svg"
   xmlns:xlink="http://www.w3.org/1999/xlink"
   xmlns:sodipodi="http://sodipodi.sourceforge.net/DTD/sodipodi-0.dtd"
   xmlns:inkscape="http://www.inkscape.org/namespaces/inkscape"
   version="1.1"
   id="Layer_1"
   x="0px"
   y="0px"
   width="24"
   height="24"
   viewBox="0 0 24 24"
   xml:space="preserve"
   inkscape:version="0.48.4 r9939"
   sodipodi:docname="ionicons-relationships1.svg"><metadata
   id="metadata9"><rdf:RDF><cc:Work
       rdf:about=""><dc:format>image/svg+xml</dc:format><dc:type
         rdf:resource="http://purl.org/dc/dcmitype/StillImage" /><dc:title></dc:title></cc:Work></rdf:RDF></metadata><defs
   id="defs7"><linearGradient
     id="linearGradient3784"><stop
       style="stop-color:#334466;stop-opacity:1;"
       offset="0"
       id="stop3786" /><stop
       style="stop-color:#6080c0;stop-opacity:1;"
       offset="1"
       id="stop3788" /></linearGradient><linearGradient
     inkscape:collect="always"
     xlink:href="#linearGradient3784"
     id="linearGradient3790"
     x1="11.929917"
     y1="23.095943"
     x2="11.929917"
     y2="3.5472834"
     gradientUnits="userSpaceOnUse" /><linearGradient
     inkscape:collect="always"
     xlink:href="#linearGradient3784"
     id="linearGradient3800"
     gradientUnits="userSpaceOnUse"
     x1="26.193293"
     y1="-1.4491655"
     x2="9.3973732"
     y2="8.247963" /><linearGradient
     inkscape:collect="always"
     xlink:href="#linearGradient3784"
     id="linearGradient8869"
     x1="12.127286"
     y1="41.897156"
     x2="12.06434"
     y2="1.0892045"
     gradientUnits="userSpaceOnUse" /><linearGradient
     inkscape:collect="always"
     xlink:href="#linearGradient3784"
     id="linearGradient8883"
     x1="8.3085051"
     y1="18.485149"
     x2="8.3085041"
     y2="-8.7384605"
     gradientUnits="userSpaceOnUse" /></defs><sodipodi:namedview
   pagecolor="#ffffff"
   bordercolor="#666666"
   borderopacity="1"
   objecttolerance="10"
   gridtolerance="10"
   guidetolerance="10"
   inkscape:pageopacity="0"
   inkscape:pageshadow="2"
   inkscape:window-width="1396"
   inkscape:window-height="880"
   id="namedview5"
   showgrid="false"
   inkscape:zoom="11.313709"
   inkscape:cx="4.688429"
   inkscape:cy="11.159728"
   inkscape:window-x="40"
   inkscape:window-y="-3"
   inkscape:window-maximized="1"
   inkscape:current-layer="g3764" />

<g
   id="g3764"
   transform="translate(0,-0.9375)"
   style="fill-opacity:1;fill:url(#linearGradient3790)"><path
     id="path8855"
     style="fill:url(#linearGradient8883);fill-opacity:1;fill-rule:evenodd;stroke-width:1;stroke-miterlimit:4"
     d="m 8.1919347,5.2905369 7.6113763,-6e-7 0,0.8859951 -7.6113763,-1e-7 z m 7.1378953,13.1184861 3.660132,-6.339534 0.737947,0.426053 -3.660132,6.339534 z M 4.0407671,12.429138 7.7008992,18.768672 8.4388461,18.342618 4.7787136,12.003084 z" /><path
     id="rect3762"
     style="fill:url(#linearGradient8869);fill-opacity:1;fill-rule:evenodd;stroke-width:1;stroke-miterlimit:4"
     d="m 9.9377788,10.840932 c 0,0 3e-7,-0.682 -0.05683,-1.038502 C 9.8344502,9.5208411 9.4443668,9.1488411 7.7858694,8.5391838 6.1531947,7.9398443 6.2539524,8.2317665 6.2539524,7.1286819 c 0,-0.7155818 0.3642461,-0.299667 0.59674,-1.6584936 0.090422,-0.5347504 0.1627463,-0.1782549 0.359088,-1.0359222 0.1033319,-0.4495028 -0.069756,-0.483084 -0.04909,-0.6975034 0.020675,-0.2144117 0.041337,-0.40558 0.080089,-0.8447419 0.04649,-0.5425016 -0.457244,-1.9710858 -2.262998,-1.9710858 -1.8057518,0 -2.3095,1.428584 -2.260416,1.973664 0.038749,0.4365839 0.059413,0.6303346 0.080086,0.8447495 0.020672,0.2144209 -0.1524143,0.2480008 -0.049091,0.6974996 0.1963309,0.8550853 0.2686692,0.49859 0.3590855,1.0359156 0.2325017,1.3588358 0.5967501,0.9429134 0.5967493,1.6585014 0,1.1056672 0.1007472,0.8137538 -1.5319173,1.4104998 -1.6584928,0.6070767 -2.0511595,0.981672 -2.0950766,1.2632561 -0.059416,0.353911 -0.059416,1.035911 -0.059416,1.035911 l 4.9599918,0 4.9599984,0 z m 14.0463502,0 c 0,0 0,-0.682001 -0.05683,-1.038503 C 23.880803,9.520841 23.490718,9.1488418 21.83222,8.5391845 20.199543,7.9398438 20.300303,8.2317662 20.300303,7.1286816 c 0,-0.7155814 0.364249,-0.2996634 0.59674,-1.6584936 0.09042,-0.5347498 0.16275,-0.1782482 0.359089,-1.0359219 0.103328,-0.4495031 -0.06976,-0.4830842 -0.04909,-0.6975037 0.02067,-0.2144099 0.04134,-0.4055798 0.0801,-0.8447419 0.0465,-0.5425018 -0.457245,-1.9710863 -2.263,-1.9710853 -1.805753,-6e-7 -2.309502,1.4285763 -2.260416,1.973664 0.03875,0.4365837 0.05941,0.6303352 0.08008,0.844749 0.02067,0.2144232 -0.152416,0.2479948 -0.04909,0.6975004 0.196331,0.8550847 0.268666,0.4985904 0.359083,1.0359152 0.232503,1.3588346 0.596749,0.942913 0.596749,1.6585012 0,1.1056672 0.100752,0.8137531 -1.531912,1.4105 -1.658502,0.6070766 -2.051168,0.981672 -2.095088,1.263251 -0.05941,0.353911 -0.05941,1.035912 -0.05941,1.035912 l 4.959999,-10e-7 4.96,10e-7 z m -7.105275,14.121821 c 0,0 0,-0.682 -0.05683,-1.038502 -0.0465,-0.281587 -0.436579,-0.653587 -2.095076,-1.263245 -1.632677,-0.599339 -1.531917,-0.307417 -1.531917,-1.410502 0,-0.715581 0.364248,-0.299664 0.596739,-1.658493 0.09042,-0.53475 0.162752,-0.17825 0.359088,-1.035923 0.103328,-0.449503 -0.06976,-0.483083 -0.04909,-0.697503 0.02067,-0.214412 0.04134,-0.40558 0.0801,-0.844742 0.0465,-0.542501 -0.457245,-1.971086 -2.263,-1.971086 -1.805752,0 -2.3094961,1.428592 -2.2604161,1.973664 0.038752,0.436584 0.059408,0.630336 0.08008,0.84475 0.020672,0.214421 -0.152416,0.247994 -0.049088,0.697499 0.1963312,0.855085 0.2686691,0.498591 0.3590831,1.035915 0.232503,1.358837 0.596749,0.942916 0.596749,1.658503 0,1.105667 0.100752,0.813753 -1.5319137,1.410499 -1.6585035,0.607077 -2.0511689,0.981672 -2.095088,1.263253 -0.059408,0.353909 -0.059408,1.03591 -0.059408,1.03591 l 4.9600017,0 4.959997,-1e-6 z" /></g></svg>