<?xml version="1.0" encoding="UTF-8" standalone="no"?>
<!-- Generator: Adobe Illustrator 16.2.1, SVG Export Plug-In . SVG Version: 6.00 Build 0)  -->

<svg
   version="1.1"
   id="Layer_1"
   x="0px"
   y="0px"
   width="512px"
   height="512px"
   viewBox="0 0 512 512"
   style="enable-background:new 0 0 512 512;"
   xml:space="preserve"
   inkscape:version="1.1.2 (0a00cf5339, 2022-02-04)"
   sodipodi:docname="ionicons-hamburger-w.svg"
   xmlns:inkscape="http://www.inkscape.org/namespaces/inkscape"
   xmlns:sodipodi="http://sodipodi.sourceforge.net/DTD/sodipodi-0.dtd"
   xmlns:xlink="http://www.w3.org/1999/xlink"
   xmlns="http://www.w3.org/2000/svg"
   xmlns:svg="http://www.w3.org/2000/svg"
   xmlns:rdf="http://www.w3.org/1999/02/22-rdf-syntax-ns#"
   xmlns:cc="http://creativecommons.org/ns#"
   xmlns:dc="http://purl.org/dc/elements/1.1/"><metadata
     id="metadata4200"><rdf:RDF><cc:Work
         rdf:about=""><dc:format>image/svg+xml</dc:format><dc:type
           rdf:resource="http://purl.org/dc/dcmitype/StillImage" /></cc:Work></rdf:RDF></metadata><defs
     id="defs4198"><linearGradient
       inkscape:collect="always"
       id="linearGradient4211-3"><stop
         style="stop-color:#f8f8f8;stop-opacity:1"
         offset="0"
         id="stop4213" /><stop
         style="stop-color:#d0d0d0;stop-opacity:1"
         offset="1"
         id="stop4215" /></linearGradient><linearGradient
       inkscape:collect="always"
       xlink:href="#linearGradient4211-3"
       id="linearGradient4217"
       x1="263.87115"
       y1="127.43777"
       x2="264.62079"
       y2="401.05417"
       gradientUnits="userSpaceOnUse"
       gradientTransform="matrix(1.2,0,0,1.2,-51.2,-51.2)" /></defs><sodipodi:namedview
     pagecolor="#ffffff"
     bordercolor="#666666"
     borderopacity="1"
     objecttolerance="10"
     gridtolerance="10"
     guidetolerance="10"
     inkscape:pageopacity="0"
     inkscape:pageshadow="2"
     inkscape:window-width="1552"
     inkscape:window-height="863"
     id="namedview4196"
     showgrid="false"
     inkscape:zoom="1.3339844"
     inkscape:cx="94.079061"
     inkscape:cy="256.37481"
     inkscape:window-x="48"
     inkscape:window-y="0"
     inkscape:window-maximized="1"
     inkscape:current-layer="Layer_1"
     inkscape:pagecheckerboard="0" /><g
     id="g944"><path
       id="path4194"
       d="M 449.68,371.2 H 62.32 c -20.28,0 -36.72,17.16 -36.72,38.4 0,21.24 16.44,38.4 36.72,38.4 h 387.36 c 20.28,0 36.72,-17.16 36.72,-38.4 0,-21.24 -16.44,-38.4 -36.72,-38.4 z m 0,-307.2 H 62.32 C 42.04,64 25.6,81.16 25.6,102.4 c 0,21.24 16.44,38.4 36.72,38.4 h 387.36 c 20.28,0 36.72,-17.16 36.72,-38.4 C 486.4,81.16 469.96,64 449.68,64 Z m 0,153.6 H 62.32 c -20.28,0 -36.72,17.16 -36.72,38.4 0,21.24 16.44,38.4 36.72,38.4 h 387.36 c 20.28,0 36.72,-17.16 36.72,-38.4 0,-21.24 -16.44,-38.4 -36.72,-38.4 z"
       style="fill:url(#linearGradient4217);fill-opacity:1;stroke-width:1.2"
       inkscape:connector-curvature="0" /></g></svg>
