<?xml version="1.0" encoding="UTF-8" standalone="no"?>
<!-- Generator: Adobe Illustrator 16.2.1, SVG Export Plug-In . SVG Version: 6.00 Build 0)  -->

<svg
   xmlns:dc="http://purl.org/dc/elements/1.1/"
   xmlns:cc="http://creativecommons.org/ns#"
   xmlns:rdf="http://www.w3.org/1999/02/22-rdf-syntax-ns#"
   xmlns:svg="http://www.w3.org/2000/svg"
   xmlns="http://www.w3.org/2000/svg"
   xmlns:xlink="http://www.w3.org/1999/xlink"
   xmlns:sodipodi="http://sodipodi.sourceforge.net/DTD/sodipodi-0.dtd"
   xmlns:inkscape="http://www.inkscape.org/namespaces/inkscape"
   version="1.1"
   id="Layer_1"
   x="0px"
   y="0px"
   width="512px"
   height="512px"
   viewBox="0 0 512 512"
   style="enable-background:new 0 0 512 512;"
   xml:space="preserve"
   inkscape:version="0.91 r13725"
   sodipodi:docname="ionicons-hamburger.svg"><metadata
     id="metadata4200"><rdf:RDF><cc:Work
         rdf:about=""><dc:format>image/svg+xml</dc:format><dc:type
           rdf:resource="http://purl.org/dc/dcmitype/StillImage" /><dc:title></dc:title></cc:Work></rdf:RDF></metadata><defs
     id="defs4198"><linearGradient
       inkscape:collect="always"
       id="linearGradient4211"><stop
         style="stop-color:#6080c0;stop-opacity:1"
         offset="0"
         id="stop4213" /><stop
         style="stop-color:#334466;stop-opacity:1"
         offset="1"
         id="stop4215" /></linearGradient><linearGradient
       inkscape:collect="always"
       xlink:href="#linearGradient4211"
       id="linearGradient4217"
       x1="263.87115"
       y1="127.43777"
       x2="264.62079"
       y2="401.05417"
       gradientUnits="userSpaceOnUse" /></defs><sodipodi:namedview
     pagecolor="#ffffff"
     bordercolor="#666666"
     borderopacity="1"
     objecttolerance="10"
     gridtolerance="10"
     guidetolerance="10"
     inkscape:pageopacity="0"
     inkscape:pageshadow="2"
     inkscape:window-width="1553"
     inkscape:window-height="880"
     id="namedview4196"
     showgrid="false"
     inkscape:zoom="1.3339844"
     inkscape:cx="241.38214"
     inkscape:cy="256"
     inkscape:window-x="45"
     inkscape:window-y="-3"
     inkscape:window-maximized="1"
     inkscape:current-layer="Layer_1" /><g
     id="g4188"
     transform="matrix(1.2,0,0,1.2,-51.2,-51.2)"><path
       id="path4194"
       d="M 417.4,352 94.6,352 C 77.7,352 64,366.3 64,384 c 0,17.7 13.7,32 30.6,32 l 322.8,0 c 16.9,0 30.6,-14.3 30.6,-32 0,-17.7 -13.7,-32 -30.6,-32 z m 0,-256 -322.8,0 C 77.7,96 64,110.3 64,128 c 0,17.7 13.7,32 30.6,32 l 322.8,0 c 16.9,0 30.6,-14.3 30.6,-32 0,-17.7 -13.7,-32 -30.6,-32 z m 0,128 -322.8,0 C 77.7,224 64,238.3 64,256 c 0,17.7 13.7,32 30.6,32 l 322.8,0 c 16.9,0 30.6,-14.3 30.6,-32 0,-17.7 -13.7,-32 -30.6,-32 z"
       style="fill:url(#linearGradient4217);fill-opacity:1"
       inkscape:connector-curvature="0" /></g></svg>