<?xml version="1.0" encoding="UTF-8" standalone="no"?>
<!-- Generator: Adobe Illustrator 16.2.1, SVG Export Plug-In . SVG Version: 6.00 Build 0)  -->

<svg
   xmlns:dc="http://purl.org/dc/elements/1.1/"
   xmlns:cc="http://creativecommons.org/ns#"
   xmlns:rdf="http://www.w3.org/1999/02/22-rdf-syntax-ns#"
   xmlns:svg="http://www.w3.org/2000/svg"
   xmlns="http://www.w3.org/2000/svg"
   xmlns:xlink="http://www.w3.org/1999/xlink"
   xmlns:sodipodi="http://sodipodi.sourceforge.net/DTD/sodipodi-0.dtd"
   xmlns:inkscape="http://www.inkscape.org/namespaces/inkscape"
   version="1.1"
   id="Layer_1"
   x="0px"
   y="0px"
   width="24"
   height="24"
   viewBox="0 0 24 24"
   xml:space="preserve"
   inkscape:version="0.48.4 r9939"
   sodipodi:docname="android-call.svg"><metadata
   id="metadata17"><rdf:RDF><cc:Work
       rdf:about=""><dc:format>image/svg+xml</dc:format><dc:type
         rdf:resource="http://purl.org/dc/dcmitype/StillImage" /><dc:title></dc:title></cc:Work></rdf:RDF></metadata><defs
   id="defs15"><linearGradient
     id="linearGradient3044"><stop
       style="stop-color:#334466;stop-opacity:1;"
       offset="0"
       id="stop3046" /><stop
       style="stop-color:#6080c0;stop-opacity:1;"
       offset="1"
       id="stop3048" /></linearGradient><linearGradient
     inkscape:collect="always"
     xlink:href="#linearGradient2990"
     id="linearGradient2996"
     x1="255.25331"
     y1="388.02353"
     x2="255.25331"
     y2="127.03496"
     gradientUnits="userSpaceOnUse" /><linearGradient
     id="linearGradient2990"><stop
       style="stop-color:#334466;stop-opacity:1;"
       offset="0"
       id="stop2992" /><stop
       style="stop-color:#6080c0;stop-opacity:1;"
       offset="1"
       id="stop2994" /></linearGradient><linearGradient
     inkscape:collect="always"
     xlink:href="#linearGradient2990"
     id="linearGradient3002"
     x1="255.25331"
     y1="388.02353"
     x2="255.25331"
     y2="127.03496"
     gradientUnits="userSpaceOnUse" /><linearGradient
     id="linearGradient3004"><stop
       style="stop-color:#334466;stop-opacity:1;"
       offset="0"
       id="stop3006" /><stop
       style="stop-color:#6080c0;stop-opacity:1;"
       offset="1"
       id="stop3008" /></linearGradient><linearGradient
     inkscape:collect="always"
     xlink:href="#linearGradient2990"
     id="linearGradient3010"
     x1="255.25331"
     y1="388.02353"
     x2="255.25331"
     y2="127.03496"
     gradientUnits="userSpaceOnUse" /><linearGradient
     id="linearGradient3012"><stop
       style="stop-color:#334466;stop-opacity:1;"
       offset="0"
       id="stop3014" /><stop
       style="stop-color:#6080c0;stop-opacity:1;"
       offset="1"
       id="stop3016" /></linearGradient><linearGradient
     y2="127.03496"
     x2="255.25331"
     y1="388.02353"
     x1="255.25331"
     gradientUnits="userSpaceOnUse"
     id="linearGradient3021"
     xlink:href="#linearGradient2990"
     inkscape:collect="always" /><linearGradient
     y2="127.03496"
     x2="255.25331"
     y1="388.02353"
     x1="255.25331"
     gradientUnits="userSpaceOnUse"
     id="linearGradient3023"
     xlink:href="#linearGradient2990"
     inkscape:collect="always" /><linearGradient
     y2="127.03496"
     x2="255.25331"
     y1="388.02353"
     x1="255.25331"
     gradientUnits="userSpaceOnUse"
     id="linearGradient3025"
     xlink:href="#linearGradient2990"
     inkscape:collect="always" /><linearGradient
     inkscape:collect="always"
     xlink:href="#linearGradient3044"
     id="linearGradient3050"
     x1="248.66333"
     y1="517.71637"
     x2="248.66333"
     y2="0.20016707"
     gradientUnits="userSpaceOnUse" /></defs><sodipodi:namedview
   pagecolor="#ffffff"
   bordercolor="#666666"
   borderopacity="1"
   objecttolerance="10"
   gridtolerance="10"
   guidetolerance="10"
   inkscape:pageopacity="0"
   inkscape:pageshadow="2"
   inkscape:window-width="1366"
   inkscape:window-height="705"
   id="namedview13"
   showgrid="false"
   inkscape:zoom="7.375"
   inkscape:cx="16.218426"
   inkscape:cy="15.245193"
   inkscape:window-x="1016"
   inkscape:window-y="-8"
   inkscape:window-maximized="1"
   inkscape:current-layer="Layer_1" />
<style
   type="text/css"
   id="style3">

	.st0{fill:#010101;}

</style>
<g
   id="g5"
   transform="matrix(0.02169231,0,0,0.02169231,11.387916,2.5890426)">
	
	
	<path
   id="path11"
   style="fill:url(#linearGradient3050);fill-opacity:1"
   d="m 304,90.4 v 44.4 c 34,11.8 61.2,39.2 73,73.2 h 44.4 C 407.2,151 361,104.7 304,90.4 z m 113,4.5 c 30.7,30.7 48.7,71.1 52,113.1 h 42.7 C 504.7,96 416,7.2 304,0.1 v 42.7 c 42.2,3.4 82.3,21.4 113,52.1 z m 33.5,255.4 c -37.4,-27.6 -63.4,-46.3 -75.7,-40 -15.4,7.7 -23.6,25.1 -39.3,55.7 -5.6,11.1 -18.3,32.1 -28,28.3 -12.3,-4.9 -48,-24.4 -95.6,-68.6 0,0 0,0 0,0 -4.3,-4 -8.8,-8.2 -13.3,-12.7 -53.1,-54.1 -75.8,-95.3 -81.1,-108.7 -3.8,-9.6 17.3,-22.3 28.3,-27.9 30.6,-15.7 48,-23.9 55.7,-39.3 6.2,-12.3 -12.4,-38.3 -40,-75.7 C 133.9,24 116.8,4.9 100.3,1.2 81.3,-3 73.4,8.4 35.9,41.2 -0.9,73.4 0,102.4 0,125.1 c 0,22.6 18,68.4 54.2,127.9 13.6,22.3 33.5,48.9 54.1,74.1 8.4,10.3 19.9,22.7 32.1,35.2 17.3,17.8 36.4,35.9 51.1,48 25.2,20.7 51.8,40.5 74.1,54.1 59.5,36.2 98.6,47.5 121.2,47.5 22.7,0 51.7,1 83.9,-36 32.8,-37.5 44.2,-45.4 40,-64.4 C 507,395 488,377.9 450.5,350.3 z"
   inkscape:connector-curvature="0" />
</g>
<g
   id="g3"
   transform="matrix(0.028875,0,0,0.028875,-0.09786614,9.7201761)"
   style="fill:url(#linearGradient3025);fill-opacity:1"><path
     d="m 67,148.7 c 11,5.8 163.8,89.1 169.5,92.1 5.7,3 11.5,4.4 20.5,4.4 9,0 14.8,-1.4 20.5,-4.4 5.7,-3 158.5,-86.3 169.5,-92.1 4.1,-2.1 11,-5.9 12.5,-10.2 2.6,-7.6 -0.2,-10.5 -11.3,-10.5 H 257 65.8 c -11.1,0 -13.9,3 -11.3,10.5 1.5,4.4 8.4,8.1 12.5,10.2 z"
     id="path5"
     inkscape:connector-curvature="0"
     style="fill:url(#linearGradient3021);fill-opacity:1" /><path
     d="m 455.7,153.2 c -8.2,4.2 -81.8,56.6 -130.5,88.1 l 82.2,92.5 c 2,2 2.9,4.4 1.8,5.6 -1.2,1.1 -3.8,0.5 -5.9,-1.4 l -98.6,-83.2 c -14.9,9.6 -25.4,16.2 -27.2,17.2 -7.7,3.9 -13.1,4.4 -20.5,4.4 -7.4,0 -12.8,-0.5 -20.5,-4.4 -1.9,-1 -12.3,-7.6 -27.2,-17.2 L 110.7,338 c -2,2 -4.7,2.6 -5.9,1.4 -1.2,-1.1 -0.3,-3.6 1.7,-5.6 l 82.1,-92.5 C 139.9,209.8 65.5,157.4 57.3,153.2 48.5,148.7 48,154 48,158.1 c 0,4.1 0,205 0,205 0,9.3 13.7,20.9 23.5,20.9 H 257 442.5 c 9.8,0 21.5,-11.7 21.5,-20.9 0,0 0,-201 0,-205 0,-4.2 0.6,-9.4 -8.3,-4.9 z"
     id="path7-1"
     inkscape:connector-curvature="0"
     style="fill:url(#linearGradient3023);fill-opacity:1" /></g></svg>