<?xml version="1.0" encoding="UTF-8" standalone="no"?>
<!-- Generator: Adobe Illustrator 16.2.1, SVG Export Plug-In . SVG Version: 6.00 Build 0)  -->

<svg
   xmlns:dc="http://purl.org/dc/elements/1.1/"
   xmlns:cc="http://creativecommons.org/ns#"
   xmlns:rdf="http://www.w3.org/1999/02/22-rdf-syntax-ns#"
   xmlns:svg="http://www.w3.org/2000/svg"
   xmlns="http://www.w3.org/2000/svg"
   xmlns:xlink="http://www.w3.org/1999/xlink"
   xmlns:sodipodi="http://sodipodi.sourceforge.net/DTD/sodipodi-0.dtd"
   xmlns:inkscape="http://www.inkscape.org/namespaces/inkscape"
   version="1.1"
   id="Layer_1"
   x="0px"
   y="0px"
   width="24"
   height="24"
   viewBox="0 0 24 24"
   xml:space="preserve"
   inkscape:version="0.48.4 r9939"
   sodipodi:docname="compose.svg"><metadata
   id="metadata17"><rdf:RDF><cc:Work
       rdf:about=""><dc:format>image/svg+xml</dc:format><dc:type
         rdf:resource="http://purl.org/dc/dcmitype/StillImage" /><dc:title></dc:title></cc:Work></rdf:RDF></metadata><defs
   id="defs15"><linearGradient
     id="linearGradient2996"><stop
       style="stop-color:#334466;stop-opacity:1;"
       offset="0"
       id="stop2998" /><stop
       style="stop-color:#6080c0;stop-opacity:1;"
       offset="1"
       id="stop3000" /></linearGradient><linearGradient
     inkscape:collect="always"
     xlink:href="#linearGradient2996"
     id="linearGradient3002"
     x1="257.07217"
     y1="452.33868"
     x2="257.07217"
     y2="61.855648"
     gradientUnits="userSpaceOnUse"
     gradientTransform="matrix(0.95833329,0,0,0.95833329,10.33648,10.996872)" /></defs><sodipodi:namedview
   pagecolor="#ffffff"
   bordercolor="#666666"
   borderopacity="1"
   objecttolerance="10"
   gridtolerance="10"
   guidetolerance="10"
   inkscape:pageopacity="0"
   inkscape:pageshadow="2"
   inkscape:window-width="1366"
   inkscape:window-height="705"
   id="namedview13"
   showgrid="false"
   inkscape:zoom="10.429825"
   inkscape:cx="12.140326"
   inkscape:cy="8.2776655"
   inkscape:window-x="1016"
   inkscape:window-y="-8"
   inkscape:window-maximized="1"
   inkscape:current-layer="Layer_1" />
<g
   id="g3"
   transform="matrix(0.06250407,0,0,0.06250407,-4.00026,-4.1374162)">
	
	<g
   id="g7">
		
	</g>
	<path
   id="path11"
   d="m 378.33647,256.33019 v 143.75 c 0,4.8875 -3.7375,9.6792 -8.81666,9.6792 -5.07917,0 -257.7917,-0.096 -257.7917,-0.096 -5.36663,0 -9.39163,-5.175 -9.39163,-9.5833 0,-4.4083 0,-256.83332 0,-256.83332 0,-4.79168 4.50415,-9.58334 10.15833,-9.58334 h 143.175 l 30.66666,-30.66664 H 94.094811 c -12.45833,7e-5 -22.425,9.8709 -22.425,22.32924 v 292.57916 c 0,12.3625 10.0625,22.425 22.425,22.425 H 386.67397 c 12.3625,0 22.32917,-10.0625 22.32917,-22.425 V 225.66353 l -30.66667,30.66666 z m 15.90834,-87.30416 -52.22918,-52.13334 -164.83332,170.1042 -13.5125,61.3333 61.3333,-13.5125 z m 40.44166,-62.57917 -29.13333,-29.133324 c -6.70833,-6.6125 -17.44167,-6.6125 -24.05417,0 l -30.475,30.474994 53.1875,53.1875 30.475,-30.37917 c 6.6125,-6.80417 6.6125,-17.5375 0,-24.15 z"
   style="fill:url(#linearGradient3002);fill-opacity:1"
   inkscape:connector-curvature="0" />
</g>
</svg>