<?xml version="1.0" encoding="UTF-8" standalone="no"?>
<!-- Generator: Adobe Illustrator 16.2.1, SVG Export Plug-In . SVG Version: 6.00 Build 0)  -->

<svg
   xmlns:dc="http://purl.org/dc/elements/1.1/"
   xmlns:cc="http://creativecommons.org/ns#"
   xmlns:rdf="http://www.w3.org/1999/02/22-rdf-syntax-ns#"
   xmlns:svg="http://www.w3.org/2000/svg"
   xmlns="http://www.w3.org/2000/svg"
   xmlns:xlink="http://www.w3.org/1999/xlink"
   xmlns:sodipodi="http://sodipodi.sourceforge.net/DTD/sodipodi-0.dtd"
   xmlns:inkscape="http://www.inkscape.org/namespaces/inkscape"
   version="1.1"
   id="Layer_1"
   x="0px"
   y="0px"
   width="24"
   height="24"
   viewBox="0 0 24 24"
   xml:space="preserve"
   inkscape:version="0.48.4 r9939"
   sodipodi:docname="clipboard.svg"><metadata
   id="metadata25"><rdf:RDF><cc:Work
       rdf:about=""><dc:format>image/svg+xml</dc:format><dc:type
         rdf:resource="http://purl.org/dc/dcmitype/StillImage" /><dc:title></dc:title></cc:Work></rdf:RDF></metadata><defs
   id="defs23"><linearGradient
     id="linearGradient3002"><stop
       style="stop-color:#334466;stop-opacity:1;"
       offset="0"
       id="stop3004" /><stop
       style="stop-color:#6080c0;stop-opacity:1;"
       offset="1"
       id="stop3006" /></linearGradient><linearGradient
     inkscape:collect="always"
     xlink:href="#linearGradient3002"
     id="linearGradient3008"
     x1="251.59888"
     y1="488.53818"
     x2="251.59888"
     y2="33.754841"
     gradientUnits="userSpaceOnUse" /></defs><sodipodi:namedview
   pagecolor="#ffffff"
   bordercolor="#666666"
   borderopacity="1"
   objecttolerance="10"
   gridtolerance="10"
   guidetolerance="10"
   inkscape:pageopacity="0"
   inkscape:pageshadow="2"
   inkscape:window-width="1366"
   inkscape:window-height="705"
   id="namedview21"
   showgrid="false"
   inkscape:zoom="10.429825"
   inkscape:cx="16.516286"
   inkscape:cy="13.815712"
   inkscape:window-x="1016"
   inkscape:window-y="-8"
   inkscape:window-maximized="1"
   inkscape:current-layer="Layer_1" />
<g
   id="g3"
   transform="matrix(0.05355947,0,0,0.05355947,-1.5865205,-1.6864519)"
   style="fill-opacity:1;fill:url(#linearGradient3008)">
	<g
   id="g5"
   style="fill-opacity:1;fill:url(#linearGradient3008)">
		<path
   d="m 160,160 h 192 c -1.7,-20 -9.7,-35.2 -27.9,-40.1 -0.4,-0.1 -0.9,-0.3 -1.3,-0.4 C 310.8,116.1 302,112 302,98.8 V 78.2 c 0,-25.5 -20.5,-46.3 -46,-46.3 -25.5,0 -46,20.7 -46,46.3 v 20.6 c 0,13.1 -8.8,17.2 -20.8,20.6 -0.4,0.1 -0.9,0.4 -1.4,0.5 -18.2,4.9 -25.9,20.1 -27.8,40.1 z m 96,-95.6 c 7.6,0 13.8,6.2 13.8,13.8 0,7.7 -6.2,13.8 -13.8,13.8 -7.6,0 -13.8,-6.2 -13.8,-13.8 0,-7.6 6.2,-13.8 13.8,-13.8 z"
   id="path7"
   inkscape:connector-curvature="0"
   style="fill-opacity:1;fill:url(#linearGradient3008)" />
		<path
   d="M 404.6,63 H 331 v 14.5 c 0,10.6 8.7,18.5 19,18.5 h 37.2 c 6.7,0 12.1,5.7 12.4,12.5 l 0.1,327.2 c -0.3,6.4 -5.3,11.6 -11.5,12.1 l -264.4,0.1 c -6.2,-0.5 -11.1,-5.7 -11.5,-12.1 L 112.2,108.5 C 112.5,101.7 118.1,96 124.7,96 H 162 c 10.3,0 19,-7.9 19,-18.5 V 63 H 107.4 C 92.3,63 80,76.1 80,91.6 V 452 c 0,15.5 12.3,28 27.4,28 H 256 404.6 c 15.1,0 27.4,-12.5 27.4,-28 V 91.6 C 432,76.1 419.7,63 404.6,63 z"
   id="path9"
   inkscape:connector-curvature="0"
   style="fill-opacity:1;fill:url(#linearGradient3008)" />
	</g>
	<rect
   x="144"
   y="192"
   width="112"
   height="16"
   id="rect11"
   style="fill-opacity:1;fill:url(#linearGradient3008)" />
	<rect
   x="144"
   y="288"
   width="160"
   height="16"
   id="rect13"
   style="fill-opacity:1;fill:url(#linearGradient3008)" />
	<rect
   x="144"
   y="384"
   width="129"
   height="16"
   id="rect15"
   style="fill-opacity:1;fill:url(#linearGradient3008)" />
	<rect
   x="144"
   y="336"
   width="176"
   height="16"
   id="rect17"
   style="fill-opacity:1;fill:url(#linearGradient3008)" />
	<rect
   x="144"
   y="240"
   width="208"
   height="16"
   id="rect19"
   style="fill-opacity:1;fill:url(#linearGradient3008)" />
</g>
</svg>