<?xml version="1.0" encoding="UTF-8" standalone="no"?>
<svg
   xmlns:dc="http://purl.org/dc/elements/1.1/"
   xmlns:cc="http://creativecommons.org/ns#"
   xmlns:rdf="http://www.w3.org/1999/02/22-rdf-syntax-ns#"
   xmlns:svg="http://www.w3.org/2000/svg"
   xmlns="http://www.w3.org/2000/svg"
   xmlns:xlink="http://www.w3.org/1999/xlink"
   xml:space="preserve"
   viewBox="0 0 24 24"
   height="24"
   width="24"
   y="0px"
   x="0px"
   id="Layer_1"
   version="1.1"><metadata
     id="metadata11"><rdf:RDF><cc:Work
         rdf:about=""><dc:format>image/svg+xml</dc:format><dc:type
           rdf:resource="http://purl.org/dc/dcmitype/StillImage" /><dc:title></dc:title></cc:Work></rdf:RDF></metadata><defs
     id="defs9"><linearGradient
       id="linearGradient2988"><stop
         id="stop2990"
         offset="0"
         style="stop-color:#d0d0d0;stop-opacity:1" /><stop
         id="stop2992"
         offset="1"
         style="stop-color:#f8f8f8;stop-opacity:1" /></linearGradient><linearGradient
       gradientUnits="userSpaceOnUse"
       y2="61.860779"
       x2="260.75223"
       y1="445.88528"
       x1="260.75223"
       id="linearGradient2994"
       xlink:href="#linearGradient2988" /></defs><g
     style="fill-opacity:1;fill:url(#linearGradient2994)"
     transform="matrix(0.0625,0,0,0.0625,-3.9580307,-4.0034241)"
     id="g3"><path
       style="fill-opacity:1;fill:url(#linearGradient2994)"
       id="path5"
       d="m 411.1,256 c 0,-23.9 14.8,-42.8 36.9,-55.8 -4,-13.3 -9.3,-26.2 -15.8,-38.2 -24.9,6.5 -45,-3.2 -62,-20.2 -16.9,-16.9 -22.1,-37.1 -15.6,-62 -12,-6.5 -24.8,-11.8 -38.2,-15.8 -13,22.2 -36.4,36.9 -60.4,36.9 -23.9,0 -47.4,-14.7 -60.4,-36.9 -13.4,4 -26.2,9.3 -38.2,15.8 6.5,24.9 1.3,45 -15.6,62 -16.9,16.9 -37.1,26.7 -61.9,20.2 -6.6,12 -11.9,24.8 -15.9,38.2 22.2,13 37,31.9 37,55.8 0,23.9 -14.8,47.4 -37,60.4 4,13.4 9.3,26.2 15.8,38.2 24.9,-6.5 45,-1.3 61.9,15.6 17,16.9 22.1,37.1 15.6,62 12.1,6.5 24.8,11.8 38.2,15.8 13,-22.2 36.5,-36.9 60.4,-36.9 23.9,0 47.4,14.7 60.4,36.9 13.4,-4 26.2,-9.3 38.2,-15.8 -6.5,-24.9 -1.3,-45 15.6,-62 16.9,-16.9 37.1,-26.7 62,-20.2 6.5,-12.1 11.8,-24.9 15.8,-38.2 -22.1,-13 -36.8,-31.9 -36.8,-55.8 z M 256,354.3 c -54.2,0 -98.3,-44 -98.3,-98.3 0,-54.3 44,-98.3 98.3,-98.3 54.3,0 98.3,44 98.3,98.3 0,54.3 -44,98.3 -98.3,98.3 z" /></g></svg>