<?xml version="1.0" encoding="UTF-8" standalone="no"?>
<!-- Generator: Adobe Illustrator 16.2.1, SVG Export Plug-In . SVG Version: 6.00 Build 0)  -->

<svg
   xmlns:dc="http://purl.org/dc/elements/1.1/"
   xmlns:cc="http://creativecommons.org/ns#"
   xmlns:rdf="http://www.w3.org/1999/02/22-rdf-syntax-ns#"
   xmlns:svg="http://www.w3.org/2000/svg"
   xmlns="http://www.w3.org/2000/svg"
   xmlns:xlink="http://www.w3.org/1999/xlink"
   xmlns:sodipodi="http://sodipodi.sourceforge.net/DTD/sodipodi-0.dtd"
   xmlns:inkscape="http://www.inkscape.org/namespaces/inkscape"
   version="1.1"
   id="Layer_1"
   x="0px"
   y="0px"
   width="24"
   height="24"
   viewBox="0 0 24 24"
   xml:space="preserve"
   inkscape:version="0.48.4 r9939"
   sodipodi:docname="person.svg"><metadata
   id="metadata9"><rdf:RDF><cc:Work
       rdf:about=""><dc:format>image/svg+xml</dc:format><dc:type
         rdf:resource="http://purl.org/dc/dcmitype/StillImage" /><dc:title></dc:title></cc:Work></rdf:RDF></metadata><defs
   id="defs7"><linearGradient
     id="linearGradient3784"><stop
       style="stop-color:#334466;stop-opacity:1;"
       offset="0"
       id="stop3786" /><stop
       style="stop-color:#6080c0;stop-opacity:1;"
       offset="1"
       id="stop3788" /></linearGradient><linearGradient
     inkscape:collect="always"
     xlink:href="#linearGradient3784"
     id="linearGradient3790"
     x1="11.929917"
     y1="23.095943"
     x2="11.929917"
     y2="3.5472834"
     gradientUnits="userSpaceOnUse" /><linearGradient
     inkscape:collect="always"
     xlink:href="#linearGradient3784"
     id="linearGradient3800"
     gradientUnits="userSpaceOnUse"
     x1="26.193293"
     y1="-1.4491655"
     x2="9.3973732"
     y2="8.247963" /></defs><sodipodi:namedview
   pagecolor="#ffffff"
   bordercolor="#666666"
   borderopacity="1"
   objecttolerance="10"
   gridtolerance="10"
   guidetolerance="10"
   inkscape:pageopacity="0"
   inkscape:pageshadow="2"
   inkscape:window-width="1366"
   inkscape:window-height="705"
   id="namedview5"
   showgrid="false"
   inkscape:zoom="16"
   inkscape:cx="15.250929"
   inkscape:cy="11.172672"
   inkscape:window-x="1016"
   inkscape:window-y="-8"
   inkscape:window-maximized="1"
   inkscape:current-layer="Layer_1" />

<g
   id="g3764"
   transform="translate(0,-0.9375)"
   style="fill-opacity:1;fill:url(#linearGradient3790)"><path
     id="rect3762"
     style="fill:url(#linearGradient3800);fill-opacity:1;fill-rule:evenodd;stroke-width:1;stroke-miterlimit:4"
     d="m 10.851322,-2.6229715 10.45752,0 0,0.6554674 -10.45752,0 z M 24.246049,3.1120789 19.017289,12.168557 19.58494,12.49629 24.8137,3.4398124 z M 8.870888,2.4542946 14.307585,11.870931 14.897811,11.530163 9.4611138,2.1135276 z M 27.818883,1.3532112 c 0,0 -0.369143,0.213125 -0.579866,0.2937708 -0.166943,0.062829 -0.490195,-0.032059 -1.338462,-0.73922957 -0.834614,-0.69641874 -0.645119,-0.73310629 -1.242181,-0.38839228 -0.38732,0.223619 -0.04837,0.29080014 -0.711205,0.84127355 -0.261187,0.2160486 -0.04562,0.1437945 -0.448495,0.5180881 -0.21101,0.1963974 -0.283276,0.1132048 -0.392874,0.1913998 -0.109594,0.078193 -0.206607,0.1491221 -0.4322,0.3073353 -0.279107,0.1946982 -1.209771,0.3684735 -1.774069,-0.6089202 -0.564298,-0.97739195 0.05153,-1.69648612 0.361897,-1.84025606 0.248418,-0.11545737 0.359744,-0.16482448 0.482259,-0.22063993 0.122519,-0.0558174 0.0866,-0.15999758 0.362193,-0.24453816 0.524181,-0.16094662 0.353829,-0.0103882 0.672919,-0.12936402 0.808149,-0.29879089 0.696852,0.0283388 1.084174,-0.19528224 0.59846,-0.34552099 0.471943,-0.19976439 0.284733,-1.26995359 -0.189693,-1.0874028 -0.109645,-1.4170003 0.02904,-1.528766 0.172994,-0.1427525 0.542138,-0.3558775 0.542138,-0.3558775 l 1.55,2.6846793 1.549999,2.6846779 z M 20.008292,15.943513 c 0,0 -0.369144,0.213125 -0.579866,0.293771 -0.166944,0.06283 -0.490196,-0.03206 -1.338463,-0.73923 -0.834614,-0.696418 -0.645119,-0.733106 -1.242181,-0.388392 -0.38732,0.223619 -0.04837,0.2908 -0.711205,0.841274 -0.261187,0.216048 -0.04562,0.143794 -0.448494,0.518088 -0.211011,0.196397 -0.283277,0.113205 -0.392875,0.1914 -0.109594,0.07819 -0.206607,0.149121 -0.4322,0.307335 -0.279108,0.194698 -1.209771,0.368473 -1.774069,-0.608921 -0.564298,-0.977392 0.05152,-1.696485 0.361897,-1.840256 0.248418,-0.115457 0.359744,-0.164824 0.482259,-0.220639 0.122519,-0.05582 0.0866,-0.159998 0.362193,-0.244539 0.524182,-0.160946 0.353828,-0.01039 0.672919,-0.129364 0.808148,-0.29879 0.696851,0.02834 1.084174,-0.195282 0.59846,-0.345521 0.471942,-0.199764 0.284733,-1.269953 -0.189692,-1.087402 -0.109644,-1.416999 0.02904,-1.528765 0.172995,-0.142753 0.542139,-0.355878 0.542139,-0.355878 l 1.549999,2.684678 1.55,2.684678 z M 11.297615,0.85617879 c 0,0 -0.369143,0.21312501 -0.579865,0.29377171 C 10.550805,1.2127788 10.227553,1.11789 9.3792859,0.41071979 8.544673,-0.28569773 8.7341673,-0.32238669 8.1371053,0.02232726 7.7497853,0.24594656 8.0887326,0.31312719 7.4259005,0.86360151 7.1647154,1.0796536 7.3802754,1.0073952 6.9774061,1.3816893 6.7663969,1.5780889 6.6941306,1.4948967 6.5845308,1.5730884 6.4749379,1.6512825 6.3779221,1.7222066 6.1523286,1.8804197 5.8732192,2.075115 4.9425584,2.2488934 4.3782603,1.2715004 c -0.5642975,-0.97739184 0.051525,-1.69648608 0.361897,-1.84025604 0.2484169,-0.11545904 0.359745,-0.16482143 0.482261,-0.22063616 0.1225187,-0.0558175 0.086605,-0.15999682 0.3621918,-0.24454 0.5241819,-0.160947 0.3538288,-0.010388 0.6729199,-0.129363 0.8081483,-0.2987909 0.6968513,0.02834 1.0841744,-0.1952816 0.5984599,-0.345521 0.4719406,-0.1997671 0.2847313,-1.2699558 -0.1896891,-1.087397 -0.1096418,-1.4169951 0.029046,-1.528761 0.1729922,-0.1427569 0.5421355,-0.3558819 0.5421355,-0.3558819 l 1.5499974,2.6846743 1.5499995,2.68467794 z"
     transform="matrix(0.5,0.8660254,0.8660254,-0.5,0,0)" /></g></svg>