<?xml version="1.0" encoding="UTF-8" standalone="no"?>
<!-- Generator: Adobe Illustrator 16.2.1, SVG Export Plug-In . SVG Version: 6.00 Build 0)  -->

<svg
   xmlns:dc="http://purl.org/dc/elements/1.1/"
   xmlns:cc="http://creativecommons.org/ns#"
   xmlns:rdf="http://www.w3.org/1999/02/22-rdf-syntax-ns#"
   xmlns:svg="http://www.w3.org/2000/svg"
   xmlns="http://www.w3.org/2000/svg"
   xmlns:xlink="http://www.w3.org/1999/xlink"
   xmlns:sodipodi="http://sodipodi.sourceforge.net/DTD/sodipodi-0.dtd"
   xmlns:inkscape="http://www.inkscape.org/namespaces/inkscape"
   version="1.1"
   id="Layer_1"
   x="0px"
   y="0px"
   width="24"
   height="24"
   viewBox="0 0 24 24"
   xml:space="preserve"
   inkscape:version="0.48.4 r9939"
   sodipodi:docname="person-add.svg"><metadata
   id="metadata13"><rdf:RDF><cc:Work
       rdf:about=""><dc:format>image/svg+xml</dc:format><dc:type
         rdf:resource="http://purl.org/dc/dcmitype/StillImage" /><dc:title></dc:title></cc:Work></rdf:RDF></metadata><defs
   id="defs11"><linearGradient
   id="linearGradient3000"><stop
     style="stop-color:#334466;stop-opacity:1;"
     offset="0"
     id="stop3002" /><stop
     style="stop-color:#496293;stop-opacity:1;"
     offset="1"
     id="stop3004" /></linearGradient><linearGradient
   id="linearGradient2992"><stop
     style="stop-color:#344568;stop-opacity:1;"
     offset="0"
     id="stop2994" /><stop
     style="stop-color:#6080c0;stop-opacity:1;"
     offset="1"
     id="stop2996" /></linearGradient>
	
	
<linearGradient
   inkscape:collect="always"
   xlink:href="#linearGradient2992"
   id="linearGradient2998"
   x1="221.28813"
   y1="446.91525"
   x2="221.28813"
   y2="67.099304"
   gradientUnits="userSpaceOnUse" /><linearGradient
   inkscape:collect="always"
   xlink:href="#linearGradient3000"
   id="linearGradient3006"
   x1="406.77966"
   y1="325.42374"
   x2="406.77966"
   y2="185.48732"
   gradientUnits="userSpaceOnUse" /><linearGradient
   inkscape:collect="always"
   xlink:href="#linearGradient3000"
   id="linearGradient3012"
   gradientUnits="userSpaceOnUse"
   x1="406.77966"
   y1="325.42374"
   x2="406.77966"
   y2="185.48732" /><linearGradient
   inkscape:collect="always"
   xlink:href="#linearGradient2992"
   id="linearGradient3014"
   gradientUnits="userSpaceOnUse"
   x1="221.28813"
   y1="446.91525"
   x2="221.28813"
   y2="67.099304" /></defs><sodipodi:namedview
   pagecolor="#ffffff"
   bordercolor="#666666"
   borderopacity="1"
   objecttolerance="10"
   gridtolerance="10"
   guidetolerance="10"
   inkscape:pageopacity="0"
   inkscape:pageshadow="2"
   inkscape:window-width="1366"
   inkscape:window-height="705"
   id="namedview9"
   showgrid="false"
   inkscape:zoom="10.429825"
   inkscape:cx="-8.3622959"
   inkscape:cy="11.664334"
   inkscape:window-x="1016"
   inkscape:window-y="-8"
   inkscape:window-maximized="1"
   inkscape:current-layer="Layer_1" />
<g
   id="g3008"
   transform="matrix(0.05357143,0,0,0.05357143,-1.6464894,-1.6949152)"><polygon
     style="fill:url(#linearGradient3012);fill-opacity:1"
     points="387,328 429,328 429,277 480,277 480,235 429,235 429,184 387,184 387,235 336,235 336,277 387,277 "
     id="polygon5" /><path
     style="fill:url(#linearGradient3014);fill-opacity:1"
     d="m 416,448 c 0,0 0,-26.4 -2.2,-40.2 -1.8,-10.9 -16.9,-25.3 -81.1,-48.9 -63.2,-23.2 -59.3,-11.9 -59.3,-54.6 0,-27.7 14.1,-11.6 23.1,-64.2 3.5,-20.7 6.3,-6.9 13.9,-40.1 4,-17.4 -2.7,-18.7 -1.9,-27 0.8,-8.3 1.6,-15.7 3.1,-32.7 1.8,-21 -17.7,-76.3 -87.6,-76.3 -69.9,0 -89.4,55.3 -87.5,76.4 1.5,16.9 2.3,24.4 3.1,32.7 0.8,8.3 -5.9,9.6 -1.9,27 7.6,33.1 10.4,19.3 13.9,40.1 9,52.6 23.1,36.5 23.1,64.2 0,42.8 3.9,31.5 -59.3,54.6 C 51.2,382.5 36,397 34.3,407.9 32,421.6 32,448 32,448 h 192 192 z"
     id="path7"
     inkscape:connector-curvature="0" /></g>
</svg>