<?xml version="1.0" encoding="UTF-8" standalone="no"?>
<!-- Generator: Adobe Illustrator 16.2.1, SVG Export Plug-In . SVG Version: 6.00 Build 0)  -->

<svg
   xmlns:dc="http://purl.org/dc/elements/1.1/"
   xmlns:cc="http://creativecommons.org/ns#"
   xmlns:rdf="http://www.w3.org/1999/02/22-rdf-syntax-ns#"
   xmlns:svg="http://www.w3.org/2000/svg"
   xmlns="http://www.w3.org/2000/svg"
   xmlns:xlink="http://www.w3.org/1999/xlink"
   xmlns:sodipodi="http://sodipodi.sourceforge.net/DTD/sodipodi-0.dtd"
   xmlns:inkscape="http://www.inkscape.org/namespaces/inkscape"
   version="1.1"
   id="Layer_1"
   x="0px"
   y="0px"
   width="24"
   height="24"
   viewBox="0 0 24 24"
   xml:space="preserve"
   inkscape:version="0.48.4 r9939"
   sodipodi:docname="gear-a.svg"><metadata
   id="metadata11"><rdf:RDF><cc:Work
       rdf:about=""><dc:format>image/svg+xml</dc:format><dc:type
         rdf:resource="http://purl.org/dc/dcmitype/StillImage" /><dc:title></dc:title></cc:Work></rdf:RDF></metadata><defs
   id="defs9"><linearGradient
     id="linearGradient2988"><stop
       style="stop-color:#334466;stop-opacity:1;"
       offset="0"
       id="stop2990" /><stop
       style="stop-color:#6080c0;stop-opacity:1;"
       offset="1"
       id="stop2992" /></linearGradient><linearGradient
     inkscape:collect="always"
     xlink:href="#linearGradient2988"
     id="linearGradient2994"
     x1="260.75223"
     y1="445.88528"
     x2="260.75223"
     y2="61.860779"
     gradientUnits="userSpaceOnUse" /></defs><sodipodi:namedview
   pagecolor="#ffffff"
   bordercolor="#666666"
   borderopacity="1"
   objecttolerance="10"
   gridtolerance="10"
   guidetolerance="10"
   inkscape:pageopacity="0"
   inkscape:pageshadow="2"
   inkscape:window-width="1366"
   inkscape:window-height="705"
   id="namedview7"
   showgrid="false"
   inkscape:zoom="10.429825"
   inkscape:cx="9.7457875"
   inkscape:cy="14.195931"
   inkscape:window-x="1016"
   inkscape:window-y="-8"
   inkscape:window-maximized="1"
   inkscape:current-layer="Layer_1" />
<g
   id="g3"
   transform="matrix(0.0625,0,0,0.0625,-3.9580307,-4.0034241)"
   style="fill-opacity:1;fill:url(#linearGradient2994)">
	<path
   d="m 411.1,256 c 0,-23.9 14.8,-42.8 36.9,-55.8 -4,-13.3 -9.3,-26.2 -15.8,-38.2 -24.9,6.5 -45,-3.2 -62,-20.2 -16.9,-16.9 -22.1,-37.1 -15.6,-62 -12,-6.5 -24.8,-11.8 -38.2,-15.8 -13,22.2 -36.4,36.9 -60.4,36.9 -23.9,0 -47.4,-14.7 -60.4,-36.9 -13.4,4 -26.2,9.3 -38.2,15.8 6.5,24.9 1.3,45 -15.6,62 -16.9,16.9 -37.1,26.7 -61.9,20.2 -6.6,12 -11.9,24.8 -15.9,38.2 22.2,13 37,31.9 37,55.8 0,23.9 -14.8,47.4 -37,60.4 4,13.4 9.3,26.2 15.8,38.2 24.9,-6.5 45,-1.3 61.9,15.6 17,16.9 22.1,37.1 15.6,62 12.1,6.5 24.8,11.8 38.2,15.8 13,-22.2 36.5,-36.9 60.4,-36.9 23.9,0 47.4,14.7 60.4,36.9 13.4,-4 26.2,-9.3 38.2,-15.8 -6.5,-24.9 -1.3,-45 15.6,-62 16.9,-16.9 37.1,-26.7 62,-20.2 6.5,-12.1 11.8,-24.9 15.8,-38.2 -22.1,-13 -36.8,-31.9 -36.8,-55.8 z M 256,354.3 c -54.2,0 -98.3,-44 -98.3,-98.3 0,-54.3 44,-98.3 98.3,-98.3 54.3,0 98.3,44 98.3,98.3 0,54.3 -44,98.3 -98.3,98.3 z"
   id="path5"
   inkscape:connector-curvature="0"
   style="fill-opacity:1;fill:url(#linearGradient2994)" />
</g>
</svg>