<?xml version="1.0" encoding="UTF-8" standalone="no"?>
<!-- Generator: Adobe Illustrator 16.2.1, SVG Export Plug-In . SVG Version: 6.00 Build 0)  -->

<svg
   xmlns:dc="http://purl.org/dc/elements/1.1/"
   xmlns:cc="http://creativecommons.org/ns#"
   xmlns:rdf="http://www.w3.org/1999/02/22-rdf-syntax-ns#"
   xmlns:svg="http://www.w3.org/2000/svg"
   xmlns="http://www.w3.org/2000/svg"
   xmlns:xlink="http://www.w3.org/1999/xlink"
   xmlns:sodipodi="http://sodipodi.sourceforge.net/DTD/sodipodi-0.dtd"
   xmlns:inkscape="http://www.inkscape.org/namespaces/inkscape"
   version="1.1"
   id="Layer_1"
   x="0px"
   y="0px"
   width="352"
   height="273.95001"
   viewBox="0 0 352 273.95001"
   xml:space="preserve"
   inkscape:version="0.91 r13725"
   sodipodi:docname="ionicons-arrow-right-c.svg"><metadata
     id="metadata3834"><rdf:RDF><cc:Work
         rdf:about=""><dc:format>image/svg+xml</dc:format><dc:type
           rdf:resource="http://purl.org/dc/dcmitype/StillImage" /><dc:title></dc:title></cc:Work></rdf:RDF></metadata><defs
     id="defs3832"><linearGradient
       inkscape:collect="always"
       id="linearGradient3836"><stop
         style="stop-color:#6080c0;stop-opacity:1"
         offset="0"
         id="stop3838" /><stop
         style="stop-color:#334466;stop-opacity:1"
         offset="1"
         id="stop3840" /></linearGradient><linearGradient
       inkscape:collect="always"
       xlink:href="#linearGradient3836"
       id="linearGradient3842"
       x1="80"
       y1="256"
       x2="432"
       y2="256"
       gradientUnits="userSpaceOnUse"
       gradientTransform="translate(-80,-119.025)" /></defs><sodipodi:namedview
     pagecolor="#ffffff"
     bordercolor="#666666"
     borderopacity="1"
     objecttolerance="10"
     gridtolerance="10"
     guidetolerance="10"
     inkscape:pageopacity="0"
     inkscape:pageshadow="2"
     inkscape:window-width="1553"
     inkscape:window-height="880"
     id="namedview3830"
     showgrid="false"
     fit-margin-top="0"
     fit-margin-left="0"
     fit-margin-right="0"
     fit-margin-bottom="0"
     inkscape:zoom="1.3339844"
     inkscape:cx="151.48214"
     inkscape:cy="106.75079"
     inkscape:window-x="45"
     inkscape:window-y="-3"
     inkscape:window-maximized="1"
     inkscape:current-layer="Layer_1" /><path
     d="M 242.7,9.3749978 343,114.375 c 6,5.8 9,13.7 9,22.4 0,8.7 -3,16.5 -9,22.4 l -100.3,105.4 c -11.9,12.5 -31.3,12.5 -43.2,0 -11.9,-12.5 -11.9,-32.7 0,-45.2 l 48.2,-50.4 -217,0 c -17,0 -30.7,-14.3 -30.7,-32 0,-17.7 13.7,-32 30.6,-32 l 217,0 -48.2,-50.400002 c -11.9,-12.5 -11.9,-32.7 0,-45.2000002 12,-12.5 31.3,-12.5 43.3,0 z"
     id="path3828"
     style="fill:url(#linearGradient3842)"
     inkscape:connector-curvature="0" /></svg>