<?xml version="1.0" encoding="UTF-8" standalone="no"?>
<svg
   xmlns:dc="http://purl.org/dc/elements/1.1/"
   xmlns:cc="http://creativecommons.org/ns#"
   xmlns:rdf="http://www.w3.org/1999/02/22-rdf-syntax-ns#"
   xmlns:svg="http://www.w3.org/2000/svg"
   xmlns="http://www.w3.org/2000/svg"
   xmlns:xlink="http://www.w3.org/1999/xlink"
   xmlns:sodipodi="http://sodipodi.sourceforge.net/DTD/sodipodi-0.dtd"
   xmlns:inkscape="http://www.inkscape.org/namespaces/inkscape"
   width="8"
   height="8"
   viewBox="0 0 8 8"
   version="1.1"
   id="svg4"
   sodipodi:docname="openiconic-wifi.svg"
   inkscape:version="0.92.0 r">
  <metadata
     id="metadata10">
    <rdf:RDF>
      <cc:Work
         rdf:about="">
        <dc:format>image/svg+xml</dc:format>
        <dc:type
           rdf:resource="http://purl.org/dc/dcmitype/StillImage" />
        <dc:title></dc:title>
      </cc:Work>
    </rdf:RDF>
  </metadata>
  <defs
     id="defs8">
    <linearGradient
       inkscape:collect="always"
       id="linearGradient4532">
      <stop
         style="stop-color:#6080c0;stop-opacity:1"
         offset="0"
         id="stop4528" />
      <stop
         style="stop-color:#496293;stop-opacity:1"
         offset="1"
         id="stop4530" />
    </linearGradient>
    <linearGradient
       inkscape:collect="always"
       id="linearGradient4524">
      <stop
         style="stop-color:#334466;stop-opacity:1"
         offset="0"
         id="stop4520" />
      <stop
         style="stop-color:#496293;stop-opacity:1"
         offset="1"
         id="stop4522" />
    </linearGradient>
    <linearGradient
       inkscape:collect="always"
       id="linearGradient4497">
      <stop
         style="stop-color:#334466;stop-opacity:1"
         offset="0"
         id="stop4493" />
      <stop
         style="stop-color:#496293;stop-opacity:1"
         offset="1"
         id="stop4495" />
    </linearGradient>
    <linearGradient
       inkscape:collect="always"
       xlink:href="#linearGradient4497"
       id="linearGradient4499"
       x1="1.1525422"
       y1="0.94915253"
       x2="6.3389831"
       y2="0.84745765"
       gradientUnits="userSpaceOnUse" />
    <linearGradient
       inkscape:collect="always"
       xlink:href="#linearGradient4524"
       id="linearGradient4526"
       x1="2.2711864"
       y1="3.7627118"
       x2="5.1186442"
       y2="3.7966101"
       gradientUnits="userSpaceOnUse" />
    <linearGradient
       inkscape:collect="always"
       xlink:href="#linearGradient4532"
       id="linearGradient4534"
       x1="3.7288136"
       y1="6.4745765"
       x2="3.7627118"
       y2="7.5593219"
       gradientUnits="userSpaceOnUse" />
  </defs>
  <sodipodi:namedview
     pagecolor="#ffffff"
     bordercolor="#666666"
     borderopacity="1"
     objecttolerance="10"
     gridtolerance="10"
     guidetolerance="10"
     inkscape:pageopacity="0"
     inkscape:pageshadow="2"
     inkscape:window-width="1552"
     inkscape:window-height="871"
     id="namedview6"
     showgrid="false"
     showguides="false"
     inkscape:zoom="29.5"
     inkscape:cx="4.5932203"
     inkscape:cy="4"
     inkscape:window-x="48"
     inkscape:window-y="0"
     inkscape:window-maximized="1"
     inkscape:current-layer="svg4" />
  <path
     d="M 3.75,0 C 2.37,0 1.09,0.4 0,1.09 L 0.53,1.9 C 1.46,1.31 2.56,0.99 3.75,0.99 4.95,0.99 6.07,1.3 7,1.9 L 7.53,1.09 C 6.44,0.39 5.13,0 3.75,0 Z"
     id="path4491"
     style="fill-opacity:1;fill:url(#linearGradient4499)" />
  <path
     d="M 3.75,3 C 2.96,3 2.25,3.23 1.62,3.63 L 2.15,4.47 C 2.62,4.17 3.15,4 3.74,4 4.33,4 4.9,4.17 5.37,4.47 L 5.9,3.63 C 5.28,3.24 4.53,3 3.74,3 Z"
     id="path4489"
     style="fill-opacity:1;fill:url(#linearGradient4526)" />
  <path
     d="m 3.75,6 c -0.55,0 -1,0.45 -1,1 0,0.55 0.45,1 1,1 0.55,0 1,-0.45 1,-1 0,-0.55 -0.45,-1 -1,-1 z"
     id="path2"
     style="fill-opacity:1;fill:url(#linearGradient4534)" />
</svg>
