<?xml version="1.0" encoding="UTF-8" standalone="no"?>
<svg
   xmlns:dc="http://purl.org/dc/elements/1.1/"
   xmlns:cc="http://creativecommons.org/ns#"
   xmlns:rdf="http://www.w3.org/1999/02/22-rdf-syntax-ns#"
   xmlns:svg="http://www.w3.org/2000/svg"
   xmlns="http://www.w3.org/2000/svg"
   xmlns:xlink="http://www.w3.org/1999/xlink"
   xmlns:sodipodi="http://sodipodi.sourceforge.net/DTD/sodipodi-0.dtd"
   xmlns:inkscape="http://www.inkscape.org/namespaces/inkscape"
   width="64"
   height="64"
   viewBox="0 0 64 64"
   version="1.1"
   id="svg4"
   sodipodi:docname="openiconic-3dollar.svg"
   inkscape:version="0.92.3 (2405546, 2018-03-11)">
  <metadata
     id="metadata10">
    <rdf:RDF>
      <cc:Work
         rdf:about="">
        <dc:format>image/svg+xml</dc:format>
        <dc:type
           rdf:resource="http://purl.org/dc/dcmitype/StillImage" />
        <dc:title></dc:title>
      </cc:Work>
    </rdf:RDF>
  </metadata>
  <defs
     id="defs8">
    <linearGradient
       id="linearGradient860"
       inkscape:collect="always">
      <stop
         id="stop856"
         offset="0"
         style="stop-color:#334466;stop-opacity:1" />
      <stop
         id="stop858"
         offset="1"
         style="stop-color:#6080c0;stop-opacity:1" />
    </linearGradient>
    <linearGradient
       id="linearGradient854"
       inkscape:collect="always">
      <stop
         id="stop850"
         offset="0"
         style="stop-color:#334466;stop-opacity:1" />
      <stop
         id="stop852"
         offset="1"
         style="stop-color:#6080c0;stop-opacity:1" />
    </linearGradient>
    <linearGradient
       inkscape:collect="always"
       id="linearGradient842">
      <stop
         style="stop-color:#334466;stop-opacity:1"
         offset="0"
         id="stop838" />
      <stop
         style="stop-color:#6080c0;stop-opacity:1"
         offset="1"
         id="stop840" />
    </linearGradient>
    <linearGradient
       inkscape:collect="always"
       xlink:href="#linearGradient842"
       id="linearGradient844"
       x1="3.7528899"
       y1="2.7666018"
       x2="3.7488899"
       y2="5.1706018"
       gradientUnits="userSpaceOnUse"
       gradientTransform="matrix(8,0,0,8,0.04998327,0.62563516)" />
    <linearGradient
       inkscape:collect="always"
       xlink:href="#linearGradient860"
       id="linearGradient846"
       x1="3.7528899"
       y1="2.7666018"
       x2="3.7488899"
       y2="5.1706018"
       gradientUnits="userSpaceOnUse"
       gradientTransform="matrix(8,0,0,8,0.04998317,0.62563516)" />
    <linearGradient
       inkscape:collect="always"
       xlink:href="#linearGradient854"
       id="linearGradient848"
       x1="3.7528899"
       y1="2.7666018"
       x2="3.7488899"
       y2="5.1706018"
       gradientUnits="userSpaceOnUse"
       gradientTransform="matrix(8,0,0,8,0.04998533,0.62563516)" />
  </defs>
  <sodipodi:namedview
     pagecolor="#ffffff"
     bordercolor="#666666"
     borderopacity="1"
     objecttolerance="10"
     gridtolerance="10"
     guidetolerance="10"
     inkscape:pageopacity="0"
     inkscape:pageshadow="2"
     inkscape:window-width="1552"
     inkscape:window-height="863"
     id="namedview6"
     showgrid="false"
     inkscape:zoom="7.35"
     inkscape:cx="16.545145"
     inkscape:cy="7.0805828"
     inkscape:window-x="48"
     inkscape:window-y="0"
     inkscape:window-maximized="1"
     inkscape:current-layer="svg4" />
  <path
     d="m 9.6124267,19.558459 v 3.2 H 7.2124265 c -2.176,0 -3.9999992,1.824 -3.9999992,4 v 1.6 c 0,2.176 1.4079992,3.968 3.4879992,4.512 l 8.1920005,2.112 c 0.447999,0.128 1.087999,0.928 1.087999,1.408 v 1.6 c 0,0.448 -0.352,0.8 -0.8,0.8 H 7.1804265 c -0.384,0 -0.672,-0.128 -0.8,-0.192 v -3.008 H 3.1804273 v 3.2 c 0,1.088 0.6399992,2.016 1.4079992,2.496 0.736,0.512 1.664,0.704 2.592,0.704 h 2.4000002 v 3.2 h 3.2000003 v -3.2 h 2.399999 c 2.208,0 4,-1.792 4,-4 v -1.6 c 0,-2.176 -1.408,-3.968 -3.488,-4.512 l -8.1919995,-2.112 c -0.448,-0.128 -1.088,-0.928 -1.088,-1.408 v -1.6 c 0,-0.448 0.352,-0.8 0.8,-0.8 h 7.9999995 c 0.352,0 0.672,0.128 0.8,0.192 v 3.008 h 3.2 v -3.2 c 0,-1.088 -0.64,-2.016 -1.408,-2.496 -0.736,-0.512 -1.664,-0.704 -2.592,-0.704 h -2.399999 v -3.2 z"
     id="path2"
     inkscape:connector-curvature="0"
     style="fill:url(#linearGradient848);fill-opacity:1;stroke-width:3.20000005" />
  <path
     d="m 30.073102,19.558459 v 3.2 h -2.4 c -2.176,0 -4,1.824 -4,4 v 1.6 c 0,2.176 1.408,3.968 3.488,4.512 l 8.192,2.112 c 0.448,0.128 1.088,0.928 1.088,1.408 v 1.6 c 0,0.448 -0.352,0.8 -0.8,0.8 h -8 c -0.384,0 -0.672,-0.128 -0.8,-0.192 v -3.008 h -3.2 v 3.2 c 0,1.088 0.64,2.016 1.408,2.496 0.736,0.512 1.664,0.704 2.592,0.704 h 2.4 v 3.2 h 3.2 v -3.2 h 2.4 c 2.208,0 4,-1.792 4,-4 v -1.6 c 0,-2.176 -1.408,-3.968 -3.488,-4.512 l -8.192,-2.112 c -0.448,-0.128 -1.088,-0.928 -1.088,-1.408 v -1.6 c 0,-0.448 0.352,-0.8 0.8,-0.8 h 8 c 0.352,0 0.672,0.128 0.8,0.192 v 3.008 h 3.2 v -3.2 c 0,-1.088 -0.64,-2.016 -1.408,-2.496 -0.736,-0.512 -1.664,-0.704 -2.592,-0.704 h -2.4 v -3.2 z"
     id="path2-9"
     inkscape:connector-curvature="0"
     style="fill:url(#linearGradient846);fill-opacity:1;stroke-width:3.20000005" />
  <path
     d="m 50.53378,19.558459 v 3.2 h -2.4 c -2.176,0 -4,1.824 -4,4 v 1.6 c 0,2.176 1.408,3.968 3.488,4.512 l 8.192,2.112 c 0.448,0.128 1.088,0.928 1.088,1.408 v 1.6 c 0,0.448 -0.352,0.8 -0.8,0.8 h -8 c -0.384,0 -0.672,-0.128 -0.8,-0.192 v -3.008 h -3.2 v 3.2 c 0,1.088 0.64,2.016 1.408,2.496 0.736,0.512 1.664,0.704 2.592,0.704 h 2.4 v 3.2 h 3.2 v -3.2 h 2.4 c 2.208,0 4,-1.792 4,-4 v -1.6 c 0,-2.176 -1.408,-3.968 -3.488,-4.512 l -8.192,-2.112 c -0.448,-0.128 -1.088,-0.928 -1.088,-1.408 v -1.6 c 0,-0.448 0.352,-0.8 0.8,-0.8 h 8 c 0.352,0 0.672,0.128 0.8,0.192 v 3.008 h 3.2 v -3.2 c 0,-1.088 -0.64,-2.016 -1.408,-2.496 -0.736,-0.512 -1.664,-0.704 -2.592,-0.704 h -2.4 v -3.2 z"
     id="path2-4"
     inkscape:connector-curvature="0"
     style="fill:url(#linearGradient844);fill-opacity:1;stroke-width:3.20000005" />
</svg>
