<?xml version="1.0" encoding="UTF-8" standalone="no"?>
<svg
   xmlns:dc="http://purl.org/dc/elements/1.1/"
   xmlns:cc="http://creativecommons.org/ns#"
   xmlns:rdf="http://www.w3.org/1999/02/22-rdf-syntax-ns#"
   xmlns:svg="http://www.w3.org/2000/svg"
   xmlns="http://www.w3.org/2000/svg"
   xmlns:xlink="http://www.w3.org/1999/xlink"
   xmlns:sodipodi="http://sodipodi.sourceforge.net/DTD/sodipodi-0.dtd"
   xmlns:inkscape="http://www.inkscape.org/namespaces/inkscape"
   width="8"
   height="8"
   viewBox="0 0 8 8"
   id="svg3053"
   version="1.1"
   inkscape:version="0.48.4 r9939"
   sodipodi:docname="thumb-down.svg">
  <metadata
     id="metadata3061">
    <rdf:RDF>
      <cc:Work
         rdf:about="">
        <dc:format>image/svg+xml</dc:format>
        <dc:type
           rdf:resource="http://purl.org/dc/dcmitype/StillImage" />
        <dc:title></dc:title>
      </cc:Work>
    </rdf:RDF>
  </metadata>
  <defs
     id="defs3059">
    <linearGradient
       id="linearGradient3100">
      <stop
         style="stop-color:#334466;stop-opacity:1;"
         offset="0"
         id="stop3102" />
      <stop
         style="stop-color:#6080c0;stop-opacity:1;"
         offset="1"
         id="stop3104" />
    </linearGradient>
    <linearGradient
       inkscape:collect="always"
       xlink:href="#linearGradient3100"
       id="linearGradient3106"
       x1="1.5254238"
       y1="2.2085857"
       x2="5.7457628"
       y2="5.2933316"
       gradientUnits="userSpaceOnUse" />
  </defs>
  <sodipodi:namedview
     pagecolor="#ffffff"
     bordercolor="#666666"
     borderopacity="1"
     objecttolerance="10"
     gridtolerance="10"
     guidetolerance="10"
     inkscape:pageopacity="0"
     inkscape:pageshadow="2"
     inkscape:window-width="1396"
     inkscape:window-height="880"
     id="namedview3057"
     showgrid="false"
     inkscape:zoom="29.5"
     inkscape:cx="4"
     inkscape:cy="4"
     inkscape:window-x="40"
     inkscape:window-y="-3"
     inkscape:window-maximized="1"
     inkscape:current-layer="svg3053" />
  <path
     d="M0 0v4h1v-4h-1zm2 0v4c.28 0 .53.09.72.28.19.19 1.15 2.12 1.28 2.38.13.26.39.39.66.31.26-.08.4-.36.31-.63-.08-.26-.47-1.59-.47-1.84s.22-.5.5-.5h1.5c.28 0 .5-.22.5-.5s-1.03-3.19-1.03-3.19c-.08-.18-.26-.31-.47-.31h-3.5z"
     id="path3055"
     style="fill:url(#linearGradient3106)" />
</svg>
