<?xml version="1.0" encoding="UTF-8" standalone="no"?>
<svg
   xmlns:dc="http://purl.org/dc/elements/1.1/"
   xmlns:cc="http://creativecommons.org/ns#"
   xmlns:rdf="http://www.w3.org/1999/02/22-rdf-syntax-ns#"
   xmlns:svg="http://www.w3.org/2000/svg"
   xmlns="http://www.w3.org/2000/svg"
   xmlns:xlink="http://www.w3.org/1999/xlink"
   xmlns:sodipodi="http://sodipodi.sourceforge.net/DTD/sodipodi-0.dtd"
   xmlns:inkscape="http://www.inkscape.org/namespaces/inkscape"
   width="24"
   height="24"
   viewBox="0 0 24 24"
   id="svg5677"
   version="1.1"
   inkscape:version="0.48.4 r9939"
   sodipodi:docname="openiconic-people.svg">
  <metadata
     id="metadata5685">
    <rdf:RDF>
      <cc:Work
         rdf:about="">
        <dc:format>image/svg+xml</dc:format>
        <dc:type
           rdf:resource="http://purl.org/dc/dcmitype/StillImage" />
        <dc:title />
      </cc:Work>
    </rdf:RDF>
  </metadata>
  <defs
     id="defs5683">
    <linearGradient
       id="linearGradient5705">
      <stop
         style="stop-color:#496293;stop-opacity:1;"
         offset="0"
         id="stop5707" />
      <stop
         style="stop-color:#334466;stop-opacity:1;"
         offset="1"
         id="stop5709" />
    </linearGradient>
    <linearGradient
       id="linearGradient5697">
      <stop
         style="stop-color:#496293;stop-opacity:1;"
         offset="0"
         id="stop5699" />
      <stop
         style="stop-color:#6080c0;stop-opacity:1;"
         offset="1"
         id="stop5701" />
    </linearGradient>
    <linearGradient
       inkscape:collect="always"
       xlink:href="#linearGradient5697"
       id="linearGradient5703"
       x1="2.4406779"
       y1="7.9626274"
       x2="2.4237287"
       y2="0.97957641"
       gradientUnits="userSpaceOnUse" />
    <linearGradient
       inkscape:collect="always"
       xlink:href="#linearGradient5705"
       id="linearGradient5711"
       x1="5.6020341"
       y1="0.042372882"
       x2="5.5932202"
       y2="6.9915257"
       gradientUnits="userSpaceOnUse" />
    <linearGradient
       inkscape:collect="always"
       xlink:href="#linearGradient5705"
       id="linearGradient2995"
       gradientUnits="userSpaceOnUse"
       x1="5.6020341"
       y1="0.042372882"
       x2="5.5932202"
       y2="6.9915257" />
    <linearGradient
       inkscape:collect="always"
       xlink:href="#linearGradient5697"
       id="linearGradient2997"
       gradientUnits="userSpaceOnUse"
       x1="2.4406779"
       y1="7.9626274"
       x2="2.4237287"
       y2="0.97957641" />
  </defs>
  <sodipodi:namedview
     pagecolor="#ffffff"
     bordercolor="#666666"
     borderopacity="1"
     objecttolerance="10"
     gridtolerance="10"
     guidetolerance="10"
     inkscape:pageopacity="0"
     inkscape:pageshadow="2"
     inkscape:window-width="1366"
     inkscape:window-height="705"
     id="namedview5681"
     showgrid="false"
     inkscape:zoom="7.375"
     inkscape:cx="1.4380658"
     inkscape:cy="0.29131008"
     inkscape:window-x="1016"
     inkscape:window-y="-8"
     inkscape:window-maximized="1"
     inkscape:current-layer="svg5677" />
  <g
     id="g2991"
     transform="matrix(3,0,0,3,0,-0.02)">
    <path
       style="fill:url(#linearGradient2995)"
       d="M 7.25,4.16 C 6.82,4.67 6.23,4.98 5.56,5 5.83,5.38 6,5.84 6,6.34 V 7 H 8 V 5.34 C 8,4.82 7.69,4.37 7.25,4.15 z M 5.5,0 C 4.99,0 4.55,0.35 4.28,0.88 4.73,1.42 5,2.16 5,3.01 5,3.3 4.97,3.56 4.91,3.82 5.1,3.93 5.29,4.01 5.5,4.01 c 0.83,0 1.5,-0.9 1.5,-2 0,-1.1 -0.67,-2 -1.5,-2 z"
       id="path5689"
       inkscape:connector-curvature="0" />
    <path
       style="fill:url(#linearGradient2997)"
       d="M 0.75,5.16 C 0.31,5.38 0,5.83 0,6.35 V 8.01 H 5 V 6.35 C 5,5.83 4.69,5.38 4.25,5.16 3.8,5.69 3.19,6 2.5,6 1.81,6 1.2,5.68 0.75,5.16 z M 2.5,1 C 1.67,1 1,1.9 1,3 1,4.1 1.67,5 2.5,5 3.33,5 4,4.1 4,3 4,1.9 3.33,1 2.5,1 z"
       id="path5679"
       inkscape:connector-curvature="0" />
  </g>
</svg>
