<?xml version="1.0" encoding="UTF-8" standalone="no"?>
<svg
   xmlns:dc="http://purl.org/dc/elements/1.1/"
   xmlns:cc="http://creativecommons.org/ns#"
   xmlns:rdf="http://www.w3.org/1999/02/22-rdf-syntax-ns#"
   xmlns:svg="http://www.w3.org/2000/svg"
   xmlns="http://www.w3.org/2000/svg"
   xmlns:xlink="http://www.w3.org/1999/xlink"
   xmlns:sodipodi="http://sodipodi.sourceforge.net/DTD/sodipodi-0.dtd"
   xmlns:inkscape="http://www.inkscape.org/namespaces/inkscape"
   width="8"
   height="8"
   viewBox="0 0 8 8"
   id="svg3063"
   version="1.1"
   inkscape:version="0.48.4 r9939"
   sodipodi:docname="thumb-up.svg">
  <metadata
     id="metadata3071">
    <rdf:RDF>
      <cc:Work
         rdf:about="">
        <dc:format>image/svg+xml</dc:format>
        <dc:type
           rdf:resource="http://purl.org/dc/dcmitype/StillImage" />
        <dc:title></dc:title>
      </cc:Work>
    </rdf:RDF>
  </metadata>
  <defs
     id="defs3069">
    <linearGradient
       id="linearGradient3073">
      <stop
         style="stop-color:#334466;stop-opacity:1;"
         offset="0"
         id="stop3075" />
      <stop
         style="stop-color:#6080c0;stop-opacity:1;"
         offset="1"
         id="stop3077" />
    </linearGradient>
    <linearGradient
       inkscape:collect="always"
       xlink:href="#linearGradient3073"
       id="linearGradient3079"
       x1="1.4237288"
       y1="4.9901958"
       x2="5.7796612"
       y2="1.8037548"
       gradientUnits="userSpaceOnUse" />
  </defs>
  <sodipodi:namedview
     pagecolor="#ffffff"
     bordercolor="#666666"
     borderopacity="1"
     objecttolerance="10"
     gridtolerance="10"
     guidetolerance="10"
     inkscape:pageopacity="0"
     inkscape:pageshadow="2"
     inkscape:window-width="1396"
     inkscape:window-height="880"
     id="namedview3067"
     showgrid="false"
     inkscape:zoom="29.5"
     inkscape:cx="-1.7288136"
     inkscape:cy="3"
     inkscape:window-x="40"
     inkscape:window-y="-3"
     inkscape:window-maximized="1"
     inkscape:current-layer="svg3063" />
  <path
     d="M4.47 0c-.19.02-.37.15-.47.34-.13.26-1.09 2.19-1.28 2.38-.19.19-.44.28-.72.28v4h3.5c.21 0 .39-.13.47-.31 0 0 1.03-2.91 1.03-3.19 0-.28-.22-.5-.5-.5h-1.5c-.28 0-.5-.25-.5-.5s.39-1.58.47-1.84c.08-.26-.05-.54-.31-.63-.07-.02-.12-.04-.19-.03zm-4.47 3v4h1v-4h-1z"
     id="path3065"
     style="fill:url(#linearGradient3079)" />
</svg>
