<?xml version="1.0" encoding="UTF-8" standalone="no"?>
<svg
   xmlns:dc="http://purl.org/dc/elements/1.1/"
   xmlns:cc="http://creativecommons.org/ns#"
   xmlns:rdf="http://www.w3.org/1999/02/22-rdf-syntax-ns#"
   xmlns:svg="http://www.w3.org/2000/svg"
   xmlns="http://www.w3.org/2000/svg"
   xmlns:xlink="http://www.w3.org/1999/xlink"
   xmlns:sodipodi="http://sodipodi.sourceforge.net/DTD/sodipodi-0.dtd"
   xmlns:inkscape="http://www.inkscape.org/namespaces/inkscape"
   width="24"
   height="24"
   viewBox="0 0 24 24"
   id="svg2"
   version="1.1"
   inkscape:version="0.91 r13725"
   sodipodi:docname="openiconic-dollar.svg">
  <metadata
     id="metadata10">
    <rdf:RDF>
      <cc:Work
         rdf:about="">
        <dc:format>image/svg+xml</dc:format>
        <dc:type
           rdf:resource="http://purl.org/dc/dcmitype/StillImage" />
        <dc:title></dc:title>
      </cc:Work>
    </rdf:RDF>
  </metadata>
  <defs
     id="defs8">
    <color-profile
       name="sRGB"
       xlink:href="/usr/share/color/icc/colord/sRGB.icc"
       id="color-profile4137" />
    <linearGradient
       id="linearGradient2987">
      <stop
         style="stop-color:#334466;stop-opacity:1;"
         offset="0"
         id="stop2989" />
      <stop
         style="stop-color:#6080c0;stop-opacity:1;"
         offset="1"
         id="stop2991" />
    </linearGradient>
    <linearGradient
       inkscape:collect="always"
       xlink:href="#linearGradient2987"
       id="linearGradient2993"
       x1="12.135593"
       y1="23.932203"
       x2="12.135593"
       y2="0.063078284"
       gradientUnits="userSpaceOnUse" />
  </defs>
  <sodipodi:namedview
     pagecolor="#ffffff"
     bordercolor="#666666"
     borderopacity="1"
     objecttolerance="10"
     gridtolerance="10"
     guidetolerance="10"
     inkscape:pageopacity="0"
     inkscape:pageshadow="2"
     inkscape:window-width="1552"
     inkscape:window-height="871"
     id="namedview6"
     showgrid="false"
     inkscape:zoom="14.75"
     inkscape:cx="-5.9340326"
     inkscape:cy="11.083931"
     inkscape:window-x="48"
     inkscape:window-y="0"
     inkscape:window-maximized="1"
     inkscape:current-layer="svg2" />
  <path
     d="M 10.809083,0.01 V 3.0062544 H 8.561891 c -2.0374532,0 -3.7453183,1.7078652 -3.7453183,3.7453184 v 1.4981274 c 0,2.0374528 1.318352,3.7153558 3.2659176,4.2247188 l 7.6704117,1.977528 c 0.419476,0.119851 1.018727,0.868914 1.018727,1.318352 v 1.498128 c 0,0.419476 -0.329588,0.749064 -0.749064,0.749064 H 8.5319285 c -0.3595505,0 -0.6292135,-0.119851 -0.7490637,-0.179775 v -2.81648 H 4.7866101 v 2.996255 c 0,1.018726 0.5992509,1.88764 1.3183521,2.337078 0.6891385,0.479401 1.5580524,0.659176 2.4269663,0.659176 H 10.779119 V 24.01 h 2.996255 v -2.996255 h 2.247191 c 2.067416,0 3.745319,-1.677902 3.745319,-3.745318 v -1.498128 c 0,-2.037453 -1.318353,-3.715355 -3.265918,-4.224719 L 8.831554,9.5680523 C 8.4120783,9.4482021 7.8128274,8.6991384 7.8128274,8.2497002 V 6.7515728 c 0,-0.4194757 0.329588,-0.7490637 0.7490636,-0.7490637 h 7.490637 c 0.329588,0 0.629213,0.1198502 0.749064,0.1797753 v 2.8164795 h 2.996254 V 6.0025091 c 0,-1.0187266 -0.599251,-1.8876404 -1.318352,-2.3370786 C 17.790355,3.1860297 16.921442,3.0062544 16.052528,3.0062544 H 13.805337 V 0.01 h -2.996254 z"
     id="path4"
     inkscape:connector-curvature="0"
     style="fill-opacity:1;fill:url(#linearGradient2993)" />
</svg>
