<?xml version="1.0" encoding="iso-8859-1"?>
<!-- Generator: Adobe Illustrator 18.0.0, SVG Export Plug-In . SVG Version: 6.00 Build 0)  -->
<!DOCTYPE svg PUBLIC "-//W3C//DTD SVG 1.1//EN" "http://www.w3.org/Graphics/SVG/1.1/DTD/svg11.dtd">
<svg xmlns="http://www.w3.org/2000/svg" xmlns:xlink="http://www.w3.org/1999/xlink" version="1.1" id="Capa_1" x="0px" y="0px" viewBox="0 0 492.388 492.388" style="enable-background:new 0 0 492.388 492.388;" xml:space="preserve" width="512px" height="512px">
<g>
	<path d="M217.015,189.087c-15.393-5.529-32.371,2.48-37.893,17.882l-17.729,49.416l-1.777-30.452l56.055-155.7   c3.762-10.393-0.752-22.195-10.865-27.299c-10.93-5.521-24.258-1.136-29.779,9.794L96.425,208.314   c-1.682,3.361-2.673,7.264-2.673,11.282l0.416,117.078l-72.232,37.924C1.9,385.119-5.813,409.881,4.701,429.908   c10.529,20.035,35.283,27.748,55.318,17.227l133.504-70.104l3.058-1.601c8.945-4.769,15.681-13.481,17.521-24.259l22.114-129.207   C238.601,208.056,230.76,194.015,217.015,189.087z" fill="#261979"/>
	<path d="M470.453,374.597l-72.232-37.924l0.416-117.078c0-4.018-0.991-7.921-2.673-11.282L317.363,52.727   c-5.521-10.93-18.85-15.314-29.779-9.794c-10.113,5.104-14.626,16.905-10.865,27.299l56.055,155.7l-1.776,30.452l-17.729-49.416   c-5.522-15.401-22.5-23.411-37.893-17.882c-13.746,4.929-21.587,18.97-19.203,32.877l22.115,129.207   c1.84,10.778,8.576,19.491,17.521,24.259l3.058,1.601l133.504,70.104c20.035,10.521,44.789,2.808,55.318-17.227   C498.201,409.881,490.488,385.119,470.453,374.597z" fill="#261979"/>
</g>
<g>
</g>
<g>
</g>
<g>
</g>
<g>
</g>
<g>
</g>
<g>
</g>
<g>
</g>
<g>
</g>
<g>
</g>
<g>
</g>
<g>
</g>
<g>
</g>
<g>
</g>
<g>
</g>
<g>
</g>
</svg>
